<svg width="997" height="453" xmlns="http://www.w3.org/2000/svg" xml:space="preserve" version="1.1">

 <g>
  <title>Layer 1</title>
  <g id="svg_54">
   <g id="svg_1">
    <path id="svg_2" fill="#FF0000" d="m997,69.56l0,10.78c-5.97,0.48 -10.67,5.4 -10.67,11.48c0,0.73 0.06,1.43 0.22,2.13c-1.87,-2.02 -3.02,-4.73 -3.02,-7.73c0,-6.07 4.7,-11 10.67,-11.48l0,-5.26c0.92,0.06 1.85,0.08 2.8,0.08z" class="st0"/>
    <path id="svg_3" fill="#FF0000" d="m997,103.3l0,11.53c-5.97,0.47 -10.67,5.4 -10.67,11.48c0,0.72 0.06,1.42 0.22,2.12c-1.87,-2.01 -3.02,-4.73 -3.02,-7.72c0,-6.08 4.7,-11 10.67,-11.48l0,-6.52c0.9,0.31 1.82,0.5 2.8,0.59z" class="st0"/>
    <path id="svg_4" fill="#FF0000" d="m997,137.78l0,11.56c-5.97,0.48 -10.67,5.41 -10.67,11.48c0,0.73 0.06,1.43 0.22,2.13c-1.87,-2.02 -3.02,-4.76 -3.02,-7.73c0,-6.07 4.7,-11 10.67,-11.48l0,-6.55c0.9,0.31 1.82,0.51 2.8,0.59z" class="st0"/>
    <path id="svg_5" fill="#FF0000" d="m997,172.3l0,11.56c-5.97,0.47 -10.67,5.4 -10.67,11.47c0,0.73 0.06,1.43 0.22,2.13c-1.87,-2.01 -3.02,-4.73 -3.02,-7.72c0,-6.08 4.7,-11.01 10.67,-11.48l0,-6.52c0.9,0.28 1.82,0.47 2.8,0.56z" class="st0"/>
    <path id="svg_6" fill="#FF0000" d="m997,206.81l0,11.53c-5.97,0.48 -10.67,5.41 -10.67,11.48c0,0.73 0.06,1.43 0.22,2.13c-1.87,-2.02 -3.02,-4.73 -3.02,-7.73c0,-6.07 4.7,-11 10.67,-11.47l0,-6.53c0.9,0.31 1.82,0.51 2.8,0.59z" class="st0"/>
    <path id="svg_7" fill="#FF0000" d="m997,275.81l0,11.56c-5.97,0.48 -10.67,5.41 -10.67,11.48c0,0.73 0.06,1.43 0.22,2.13c-1.87,-2.02 -3.02,-4.73 -3.02,-7.73c0,-6.07 4.7,-11 10.67,-11.48l0,-6.52c0.9,0.28 1.82,0.48 2.8,0.56z" class="st0"/>
    <path id="svg_8" fill="#FF0000" d="m997,310.33l0,11.53c-5.97,0.48 -10.67,5.4 -10.67,11.48c0,0.72 0.06,1.42 0.22,2.12c-1.87,-2.01 -3.02,-4.73 -3.02,-7.72c0,-6.08 4.7,-11 10.67,-11.48l0,-6.52c0.9,0.31 1.82,0.5 2.8,0.59z" class="st0"/>
    <path id="svg_9" fill="#FF0000" d="m997,344.81l0,11.56c-5.97,0.48 -10.67,5.41 -10.67,11.48c0,0.73 0.06,1.43 0.22,2.13c-1.87,-2.02 -3.02,-4.76 -3.02,-7.73c0,-6.07 4.7,-11 10.67,-11.47l0,-6.55c0.9,0.3 1.82,0.5 2.8,0.58z" class="st0"/>
    <path id="svg_10" fill="#FF0000" d="m997,379.33l0,10.47c-34.64,0 -62.73,28.07 -62.73,62.7l-870.73,0c0,-1.88 -0.08,-3.75 -0.28,-5.6l868.21,0c0,-34.63 28.09,-62.7 62.73,-62.7l0,-5.43c0.9,0.28 1.82,0.47 2.8,0.56z" class="st0"/>
    <path id="svg_11" fill="#FF0000" d="m997,241.3l0,11.56c-5.97,0.47 -10.67,5.4 -10.67,11.48c0,0.72 0.06,1.42 0.22,2.12c-1.87,-2.01 -3.02,-4.76 -3.02,-7.72c0,-6.08 4.7,-11 10.67,-11.48l0,-6.55c0.9,0.31 1.82,0.5 2.8,0.59z" class="st0"/>
   </g>
   <g id="svg_12">
    <path id="svg_13" fill="#FF0000" d="m0,382.44l0,-10.78c5.97,-0.48 10.67,-5.4 10.67,-11.48c0,-0.73 -0.06,-1.43 -0.22,-2.13c1.87,2.02 3.02,4.73 3.02,7.73c0,6.07 -4.7,11 -10.67,11.48l0,5.26c-0.92,-0.06 -1.85,-0.08 -2.8,-0.08z" class="st0"/>
    <path id="svg_14" fill="#FF0000" d="m0,348.7l0,-11.53c5.97,-0.47 10.67,-5.4 10.67,-11.48c0,-0.72 -0.06,-1.42 -0.22,-2.12c1.87,2.01 3.02,4.73 3.02,7.72c0,6.08 -4.7,11 -10.67,11.48l0,6.52c-0.9,-0.31 -1.82,-0.5 -2.8,-0.59z" class="st0"/>
    <path id="svg_15" fill="#FF0000" d="m0,314.22l0,-11.56c5.97,-0.48 10.67,-5.41 10.67,-11.48c0,-0.73 -0.06,-1.43 -0.22,-2.13c1.87,2.02 3.02,4.76 3.02,7.73c0,6.07 -4.7,11 -10.67,11.48l0,6.55c-0.9,-0.31 -1.82,-0.51 -2.8,-0.59z" class="st0"/>
    <path id="svg_16" fill="#FF0000" d="m0,279.7l0,-11.56c5.97,-0.47 10.67,-5.4 10.67,-11.47c0,-0.73 -0.06,-1.43 -0.22,-2.13c1.87,2.01 3.02,4.73 3.02,7.72c0,6.08 -4.7,11 -10.67,11.48l0,6.52c-0.9,-0.28 -1.82,-0.47 -2.8,-0.56z" class="st0"/>
    <path id="svg_17" fill="#FF0000" d="m0,245.19l0,-11.53c5.97,-0.48 10.67,-5.41 10.67,-11.48c0,-0.73 -0.06,-1.43 -0.22,-2.13c1.87,2.02 3.02,4.73 3.02,7.73c0,6.07 -4.7,11 -10.67,11.47l0,6.53c-0.9,-0.31 -1.82,-0.51 -2.8,-0.59z" class="st0"/>
    <path id="svg_18" fill="#FF0000" d="m0,176.19l0,-11.56c5.97,-0.48 10.67,-5.41 10.67,-11.48c0,-0.73 -0.06,-1.43 -0.22,-2.13c1.87,2.02 3.02,4.73 3.02,7.73c0,6.07 -4.7,11 -10.67,11.48l0,6.52c-0.9,-0.28 -1.82,-0.48 -2.8,-0.56z" class="st0"/>
    <path id="svg_19" fill="#FF0000" d="m0,141.67l0,-11.53c5.97,-0.48 10.67,-5.4 10.67,-11.48c0,-0.72 -0.06,-1.42 -0.22,-2.12c1.87,2.01 3.02,4.73 3.02,7.72c0,6.08 -4.7,11 -10.67,11.48l0,6.52c-0.9,-0.31 -1.82,-0.5 -2.8,-0.59z" class="st0"/>
    <path id="svg_20" fill="#FF0000" d="m0,107.19l0,-11.56c5.97,-0.48 10.67,-5.41 10.67,-11.48c0,-0.73 -0.06,-1.43 -0.22,-2.13c1.87,2.02 3.02,4.76 3.02,7.73c0,6.07 -4.7,11 -10.67,11.47l0,6.55c-0.9,-0.3 -1.82,-0.5 -2.8,-0.58z" class="st0"/>
    <path id="svg_21" fill="#FF0000" d="m0,72.67l0,-10.47c34.64,0 62.73,-28.07 62.73,-62.7l870.73,0c0,1.88 0.08,3.75 0.28,5.6l-868.21,0c0,34.62 -28.09,62.7 -62.73,62.7l0,5.43c-0.9,-0.28 -1.82,-0.47 -2.8,-0.56z" class="st0"/>
    <path id="svg_22" fill="#FF0000" d="m0,210.7l0,-11.56c5.97,-0.47 10.67,-5.4 10.67,-11.48c0,-0.72 -0.06,-1.42 -0.22,-2.12c1.87,2.01 3.02,4.76 3.02,7.72c0,6.08 -4.7,11 -10.67,11.48l0,6.55c-0.9,-0.31 -1.82,-0.5 -2.8,-0.59z" class="st0"/>
   </g>
   <path id="svg_23" fill="#B22D00" d="m997.5,65.77l0,10.77c-5.97,0.48 -10.67,5.4 -10.67,11.48c0,2.99 1.15,5.71 3.02,7.73c1.91,2.12 4.63,3.49 7.65,3.75l0,11.53c-5.97,0.48 -10.67,5.4 -10.67,11.48c0,2.99 1.15,5.71 3.02,7.72c1.91,2.13 4.63,3.5 7.65,3.75l0,11.56c-5.97,0.48 -10.67,5.41 -10.67,11.48c0,2.97 1.15,5.71 3.02,7.73c1.91,2.12 4.63,3.5 7.65,3.75l0,11.56c-5.97,0.47 -10.67,5.4 -10.67,11.48c0,2.99 1.15,5.71 3.02,7.72c1.91,2.13 4.63,3.5 7.65,3.75l0,11.53c-5.97,0.48 -10.67,5.41 -10.67,11.48c0,3 1.15,5.71 3.02,7.73c1.91,2.12 4.63,3.5 7.65,3.75l0,11.56c-5.97,0.48 -10.67,5.4 -10.67,11.48c0,2.96 1.15,5.71 3.02,7.72c1.91,2.13 4.63,3.5 7.65,3.75l0,11.56c-5.97,0.48 -10.67,5.41 -10.67,11.48c0,3 1.15,5.71 3.02,7.73c1.91,2.12 4.63,3.5 7.65,3.75l0,11.53c-5.97,0.48 -10.67,5.4 -10.67,11.48c0,2.99 1.15,5.71 3.02,7.72c1.91,2.13 4.63,3.5 7.65,3.75l0,11.56c-5.97,0.48 -10.67,5.41 -10.67,11.48c0,2.97 1.15,5.71 3.02,7.73c1.91,2.13 4.63,3.5 7.65,3.75l0,10.47c-34.64,0 -62.73,28.07 -62.73,62.7l-870.73,0c0,-8.93 -1.87,-17.44 -5.26,-25.14c-9.44,-21.55 -30.64,-36.75 -55.48,-37.51c-0.64,-0.05 -1.32,-0.05 -1.99,-0.05c-0.28,0 -0.53,0.03 -0.81,0.03l0,-10.5c0.28,0.03 0.53,0.08 0.81,0.08c6.42,0 11.6,-5.18 11.6,-11.56c0,-0.73 -0.06,-1.45 -0.2,-2.15c-0.9,-4.71 -4.65,-8.4 -9.41,-9.24c-0.64,-0.11 -1.32,-0.17 -1.99,-0.17c-0.28,0 -0.53,0.06 -0.81,0.08l0,-11.53c0.28,0.03 0.53,0.09 0.81,0.09c6.42,0 11.6,-5.18 11.6,-11.59c0,-0.73 -0.06,-1.46 -0.2,-2.16c-0.9,-4.7 -4.65,-8.4 -9.41,-9.24c-0.64,-0.11 -1.32,-0.16 -1.99,-0.16c-0.28,0 -0.53,0.05 -0.81,0.08l0,-11.53c0.28,0.03 0.53,0.08 0.81,0.08c6.42,0 11.6,-5.18 11.6,-11.56c0,-0.76 -0.06,-1.48 -0.2,-2.18c-0.9,-4.71 -4.65,-8.4 -9.41,-9.24c-0.64,-0.11 -1.32,-0.17 -1.99,-0.17c-0.28,0 -0.53,0.09 -0.81,0.09l0,-11.54c0.28,0.03 0.53,0.09 0.81,0.09c6.42,0 11.6,-5.18 11.6,-11.56c0,-0.73 -0.06,-1.46 -0.2,-2.16c-0.9,-4.7 -4.65,-8.4 -9.41,-9.24c-0.64,-0.11 -1.32,-0.16 -1.99,-0.16c-0.28,0 -0.53,0.05 -0.81,0.08l0,-11.53c0.28,0.02 0.53,0.08 0.81,0.08c6.42,0 11.6,-5.18 11.6,-11.59c0,-0.73 -0.06,-1.45 -0.2,-2.15c-0.9,-4.71 -4.65,-8.4 -9.41,-9.24c-0.64,-0.11 -1.32,-0.17 -1.99,-0.17c-0.28,0 -0.53,0.06 -0.81,0.08l0,-11.53c0.28,0.03 0.53,0.09 0.81,0.09c6.42,0 11.6,-5.18 11.6,-11.56c0,-0.76 -0.06,-1.49 -0.2,-2.19c-0.9,-4.7 -4.65,-8.4 -9.41,-9.24c-0.64,-0.11 -1.32,-0.16 -1.99,-0.16c-0.28,0 -0.53,0.05 -0.81,0.08l0,-11.53c0.28,0.03 0.53,0.08 0.81,0.08c6.42,0 11.6,-5.18 11.6,-11.56c0,-0.73 -0.06,-1.46 -0.2,-2.16c-0.9,-4.7 -4.65,-8.39 -9.41,-9.23c-0.64,-0.11 -1.32,-0.17 -1.99,-0.17c-0.28,0 -0.53,0.06 -0.81,0.08l0,-11.53c0.28,0.03 0.53,0.08 0.81,0.08c6.42,0 11.6,-5.17 11.6,-11.58c0,-0.73 -0.06,-1.46 -0.2,-2.16c-0.9,-4.7 -4.65,-8.4 -9.41,-9.24c-0.64,-0.11 -1.32,-0.16 -1.99,-0.16c-0.28,0 -0.53,0.05 -0.81,0.08l0,-11.53c0.28,0.02 0.53,0.08 0.81,0.08c6.42,0 11.6,-5.18 11.6,-11.56c0,-0.76 -0.06,-1.48 -0.2,-2.18c-0.9,-4.71 -4.65,-8.4 -9.41,-9.24c-0.64,-0.11 -1.32,-0.17 -1.99,-0.17c-0.28,0 -0.53,0.06 -0.81,0.08l0,-10.77c0.28,0 0.53,0.03 0.81,0.03c34.65,0 62.73,-28.08 62.73,-62.71l870.73,0c0,1.88 0.08,3.75 0.28,5.6c0.78,9.07 3.5,17.58 7.78,25.14c10.76,19.09 31.2,31.97 54.67,31.97z" class="st1"/>
   <path id="svg_24" fill="#FF0000" clip-rule="evenodd" fill-rule="evenodd" d="m834.88,44.3l0,0.2l-691.74,0l0,-0.2l-8.4,0l0,0.2l-1.74,0l0,0.55l-47.24,0c-8.77,19.98 -23.56,36.73 -42.36,47.94l0,21.7l0,7.83l0,69.01l0,34.5l0,34.51l0,34.5l0,34.51l0,7.93l-0.02,21.28c18.81,11.22 33.61,27.97 42.38,47.95l804.28,0c8.93,-20.35 24.07,-37.3 43.33,-48.51c0.02,-5.73 -0.01,-14.32 -0.03,-20.57l-0.02,-8.08l0,-34.51l0,-34.5l0,-34.51l0,-34.5l0,-34.51l0,-34.5l0.02,-7.95l0.01,-21.02c-19.25,-11.21 -34.38,-28.15 -43.31,-48.5l-29.04,0l0,-0.55l-17.72,0l0,-0.2l-8.4,0z" class="st2"/>
   <g id="svg_25">
    <polygon id="svg_26" fill="#FFFFFF" points="223.22999572753906,61.25 228,75.91000366210938 243.42001342773438,75.91000366210938 230.94000244140625,84.97000122070312 235.7100067138672,99.6300048828125 223.22999572753906,90.56999969482422 210.75,99.6300048828125 215.52000427246094,84.97000122070312 203.0399932861328,75.91000366210938 218.4600067138672,75.91000366210938 " class="st3"/>
    <polygon id="svg_27" fill="#FFFFFF" points="292.04998779296875,61.25 296.80999755859375,75.91000366210938 312.239990234375,75.91000366210938 299.760009765625,84.97000122070312 304.5299987792969,99.6300048828125 292.04998779296875,90.56999969482422 279.57000732421875,99.6300048828125 284.3399963378906,84.97000122070312 271.8599853515625,75.91000366210938 287.2799987792969,75.91000366210938 " class="st3"/>
    <polygon id="svg_28" fill="#FFFFFF" points="360.8599853515625,61.25 365.6300048828125,75.91000366210938 381.04998779296875,75.91000366210938 368.5799865722656,84.97000122070312 373.3399963378906,99.6300048828125 360.8599853515625,90.56999969482422 348.3900146484375,99.6300048828125 353.1499938964844,84.97000122070312 340.67999267578125,75.91000366210938 356.1000061035156,75.91000366210938 " class="st3"/>
    <polygon id="svg_29" fill="#FFFFFF" points="429.67999267578125,61.25 434.45001220703125,75.91000366210938 449.8699951171875,75.91000366210938 437.3999938964844,84.97000122070312 442.1600036621094,99.6300048828125 429.67999267578125,90.56999969482422 417.20001220703125,99.6300048828125 421.9700012207031,84.97000122070312 409.489990234375,75.91000366210938 424.9200134277344,75.91000366210938 " class="st3"/>
    <polygon id="svg_30" fill="#FFFFFF" points="498.5,61.25 503.27001953125,75.91000366210938 518.6900024414062,75.91000366210938 506.21002197265625,84.97000122070312 510.97998046875,99.6300048828125 498.5,90.56999969482422 486.0199890136719,99.6300048828125 490.7900085449219,84.97000122070312 478.30999755859375,75.91000366210938 493.7300109863281,75.91000366210938 " class="st3"/>
    <polygon id="svg_31" fill="#FFFFFF" points="567.3200073242188,61.25 572.0800170898438,75.91000366210938 587.510009765625,75.91000366210938 575.030029296875,84.97000122070312 579.7999877929688,99.6300048828125 567.3200073242188,90.56999969482422 554.8400268554688,99.6300048828125 559.6099853515625,84.97000122070312 547.1300048828125,75.91000366210938 562.5499877929688,75.91000366210938 " class="st3"/>
    <polygon id="svg_32" fill="#FFFFFF" points="636.1300048828125,61.25 640.9000244140625,75.91000366210938 656.3200073242188,75.91000366210938 643.8499755859375,84.97000122070312 648.6099853515625,99.6300048828125 636.1300048828125,90.56999969482422 623.6599731445312,99.6300048828125 628.4199829101562,84.97000122070312 615.9500122070312,75.91000366210938 631.3699951171875,75.91000366210938 " class="st3"/>
    <polygon id="svg_33" fill="#FFFFFF" points="704.9500122070312,61.25 709.719970703125,75.91000366210938 725.1400146484375,75.91000366210938 712.6699829101562,84.97000122070312 717.4299926757812,99.6300048828125 704.9500122070312,90.56999969482422 692.469970703125,99.6300048828125 697.239990234375,84.97000122070312 684.760009765625,75.91000366210938 700.1900024414062,75.91000366210938 " class="st3"/>
    <polygon id="svg_34" fill="#FFFFFF" points="773.77001953125,61.25 778.5399780273438,75.91000366210938 793.9600219726562,75.91000366210938 781.489990234375,84.97000122070312 786.25,99.6300048828125 773.77001953125,90.56999969482422 761.2899780273438,99.6300048828125 766.0599975585938,84.97000122070312 753.5800170898438,75.91000366210938 769,75.91000366210938 " class="st3"/>
   </g>
   <g id="svg_35">
    <polygon id="svg_36" fill="#FFFFFF" points="223.22999572753906,352.3699951171875 228,367.0299987792969 243.42001342773438,367.0299987792969 230.94000244140625,376.0899963378906 235.7100067138672,390.75 223.22999572753906,381.69000244140625 210.75,390.75 215.52000427246094,376.0899963378906 203.0399932861328,367.0299987792969 218.4600067138672,367.0299987792969 " class="st3"/>
    <polygon id="svg_37" fill="#FFFFFF" points="292.04998779296875,352.3699951171875 296.80999755859375,367.0299987792969 312.239990234375,367.0299987792969 299.760009765625,376.0899963378906 304.5299987792969,390.75 292.04998779296875,381.69000244140625 279.57000732421875,390.75 284.3399963378906,376.0899963378906 271.8599853515625,367.0299987792969 287.2799987792969,367.0299987792969 " class="st3"/>
    <polygon id="svg_38" fill="#FFFFFF" points="360.8599853515625,352.3699951171875 365.6300048828125,367.0299987792969 381.04998779296875,367.0299987792969 368.5799865722656,376.0899963378906 373.3399963378906,390.75 360.8599853515625,381.69000244140625 348.3900146484375,390.75 353.1499938964844,376.0899963378906 340.67999267578125,367.0299987792969 356.1000061035156,367.0299987792969 " class="st3"/>
    <polygon id="svg_39" fill="#FFFFFF" points="429.67999267578125,352.3699951171875 434.45001220703125,367.0299987792969 449.8699951171875,367.0299987792969 437.3999938964844,376.0899963378906 442.1600036621094,390.75 429.67999267578125,381.69000244140625 417.20001220703125,390.75 421.9700012207031,376.0899963378906 409.489990234375,367.0299987792969 424.9200134277344,367.0299987792969 " class="st3"/>
    <polygon id="svg_40" fill="#FFFFFF" points="498.5,352.3699951171875 503.27001953125,367.0299987792969 518.6900024414062,367.0299987792969 506.21002197265625,376.0899963378906 510.97998046875,390.75 498.5,381.69000244140625 486.0199890136719,390.75 490.7900085449219,376.0899963378906 478.30999755859375,367.0299987792969 493.7300109863281,367.0299987792969 " class="st3"/>
    <polygon id="svg_41" fill="#FFFFFF" points="567.3200073242188,352.3699951171875 572.0800170898438,367.0299987792969 587.510009765625,367.0299987792969 575.030029296875,376.0899963378906 579.7999877929688,390.75 567.3200073242188,381.69000244140625 554.8400268554688,390.75 559.6099853515625,376.0899963378906 547.1300048828125,367.0299987792969 562.5499877929688,367.0299987792969 " class="st3"/>
    <polygon id="svg_42" fill="#FFFFFF" points="636.1300048828125,352.3699951171875 640.9000244140625,367.0299987792969 656.3200073242188,367.0299987792969 643.8499755859375,376.0899963378906 648.6099853515625,390.75 636.1300048828125,381.69000244140625 623.6599731445312,390.75 628.4199829101562,376.0899963378906 615.9500122070312,367.0299987792969 631.3699951171875,367.0299987792969 " class="st3"/>
    <polygon id="svg_43" fill="#FFFFFF" points="704.9500122070312,352.3699951171875 709.719970703125,367.0299987792969 725.1400146484375,367.0299987792969 712.6699829101562,376.0899963378906 717.4299926757812,390.75 704.9500122070312,381.69000244140625 692.469970703125,390.75 697.239990234375,376.0899963378906 684.760009765625,367.0299987792969 700.1900024414062,367.0299987792969 " class="st3"/>
    <polygon id="svg_44" fill="#FFFFFF" points="773.77001953125,352.3699951171875 778.5399780273438,367.0299987792969 793.9600219726562,367.0299987792969 781.489990234375,376.0899963378906 786.25,390.75 773.77001953125,381.69000244140625 761.2899780273438,390.75 766.0599975585938,376.0899963378906 753.5800170898438,367.0299987792969 769,367.0299987792969 " class="st3"/>
   </g>
   <g id="svg_45">
    <path id="svg_46" fill="#FFFFFF" clip-rule="evenodd" fill-rule="evenodd" d="m208,142.96l0,179.54l20.21,0l0,-86.35l46.55,0c8.48,0 15.65,-7.86 15.65,-17.69l0,-57.8c0,-9.84 -7.17,-17.7 -15.65,-17.7l-66.76,0zm54.07,70.33l-33.86,0l0,-47.47l33.86,0c4.51,0 8.13,4.38 8.13,9.6l0,27.99c0,5.49 -3.62,9.88 -8.13,9.88z" class="st4"/>
    <path id="svg_47" fill="#FFFFFF" clip-rule="evenodd" fill-rule="evenodd" d="m369.2,251.22l0,-39.17c0,-9.73 -7.1,-17.51 -15.7,-17.51l-30.28,0c-8.61,0 -15.7,7.78 -15.7,17.51l0,90.58c0,9.72 7.09,17.75 15.7,17.75l36.73,0l4.73,-22.86l-28.81,0c-4.52,0 -8.14,-4.19 -8.14,-9.43l0,-19.11l25.77,0c8.6,0 15.7,-8.03 15.7,-17.76zm-20.22,-24.34l0,9.75c0,5.27 -3.61,9.49 -8.14,9.49l-13.11,0l0,-19.24c0,-5.27 3.62,-9.48 8.14,-9.48l4.97,0c4.53,0 8.14,4.21 8.14,9.48z" class="st4"/>
    <path id="svg_48" fill="#FFFFFF" clip-rule="evenodd" fill-rule="evenodd" d="m406.52,320.2l0,-102.8l12.88,0c4.75,0 8.37,4.05 8.37,9.11l20.21,0l0,-14.46c0,-9.73 -7.09,-17.51 -15.7,-17.51l-45.98,0l0,125.66l20.22,0z" class="st4"/>
    <path id="svg_49" fill="#FFFFFF" clip-rule="evenodd" fill-rule="evenodd" d="m502.41,136.8l0,57.74l-25.77,0c-8.82,0 -15.7,7.78 -15.7,17.75l0,90.34c0,9.97 6.88,17.75 15.7,17.75l45.98,0l0,-189.15l-20.21,5.57zm-21.26,151.47l0,-61.63c0,-5.39 3.85,-9.24 8.14,-9.24l13.12,0l0,80.12l-13.12,0c-4.29,0 -8.14,-4.37 -8.14,-9.25z" class="st4"/>
    <path id="svg_50" fill="#FFFFFF" clip-rule="evenodd" fill-rule="evenodd" d="m544.29,321.29l0,-121.59l19.8,-5.59l0,127.18l-19.8,0zm-0.42,-161.27l0,-23.91l19.79,-5.61l0,23.93l-19.79,5.59z" class="st4"/>
    <path id="svg_51" fill="#FFFFFF" clip-rule="evenodd" fill-rule="evenodd" d="m647.02,217.4l0,-22.86l-45.98,0c-8.61,0 -15.7,8.02 -15.7,17.75l0,38.93c0,9.97 7.09,17.76 15.7,17.76l17.4,0c4.74,0 8.36,4.19 8.36,9.42l0,9.69c0,5.24 -3.62,9.43 -8.36,9.43l-33.1,0l0,22.86l45.98,0c8.6,0 15.7,-7.78 15.7,-17.75l0,-38.76c0,-9.73 -7.1,-17.75 -15.7,-17.75l-17.63,0c-4.52,0 -8.14,-4.22 -8.14,-9.49l0,-9.75c0,-5.27 3.62,-9.48 8.14,-9.48l33.33,0z" class="st4"/>
    <polygon id="svg_52" fill="#FFFFFF" clip-rule="evenodd" fill-rule="evenodd" points="688.47998046875,320.20001220703125 688.47998046875,217.39999389648438 710.2000122070312,217.39999389648438 715.1300048828125,194.5399932861328 688.47998046875,194.5399932861328 688.47998046875,131.49000549316406 668.27001953125,136.8000030517578 668.27001953125,320.20001220703125 " class="st4"/>
    <path id="svg_53" fill="#FFFFFF" clip-rule="evenodd" fill-rule="evenodd" d="m788,251.22l0,-39.17c0,-9.73 -7.1,-17.51 -15.7,-17.51l-30.28,0c-8.6,0 -15.7,7.78 -15.7,17.51l0,90.58c0,9.72 7.1,17.75 15.7,17.75l36.73,0l4.73,-22.86l-28.81,0c-4.52,0 -8.14,-4.19 -8.14,-9.43l0,-19.11l25.77,0c8.6,0 15.7,-8.03 15.7,-17.76zm-20.21,-24.34l0,9.75c0,5.27 -3.62,9.49 -8.14,9.49l-13.12,0l0,-19.24c0,-5.27 3.62,-9.48 8.14,-9.48l4.98,0c4.52,0 8.14,4.21 8.14,9.48z" class="st4"/>
   </g>
  </g>
 </g>
</svg>