<svg width="284" height="211" xmlns="http://www.w3.org/2000/svg" xml:space="preserve" version="1.1">

 <g>
  <title>Layer 1</title>
  <g id="svg_19">
   <path id="svg_1" fill="#009046" clip-rule="evenodd" fill-rule="evenodd" d="m16.89,11.64l0,24.37l0,0.32c0,1.4 -0.06,1.9 -1.59,1.9c-0.8,0 -1.84,-0.44 -2.94,-0.44c-1.89,0 -3.3,1.51 -3.3,4.1c0,2.84 1.47,4.48 3.67,4.48c0.43,0 3.36,-0.63 9.86,-0.63c5.61,0 9.2,0.63 10.12,0.63c3.16,0 5.06,-1.64 5.06,-4.42c0,-2.58 -1.83,-4.22 -4.64,-4.22c-1.76,0 -3.31,0.56 -4.43,0.56c-1.27,0 -1.76,-0.44 -1.76,-1.58l0,-0.7l0,-4.02c0,-0.44 0.35,-0.7 1.19,-0.7c0.43,0 1.13,0.13 2.04,0.13c6.55,0 10.58,-0.26 13.64,-2.87c2.94,-2.54 4.64,-6.69 4.64,-12.3c0,-10.09 -5.05,-15.79 -14.27,-15.79c-3.09,0 -7.24,0.9 -11.95,0.9c-5.65,-0.25 -8.77,-0.9 -9.32,-0.9c-2.38,0 -3.79,1.61 -3.79,4.68c0,2.56 1.35,3.96 3.24,3.96c1.22,0 2.26,-0.38 3,-0.38c1.47,0 1.53,0.59 1.53,2.01l0,0.91zm10.05,-0.23c0,-2 0.63,-2.31 4.29,-2.31c4.71,0 7.17,2.54 7.17,7.23c0,4.3 -3.23,6.69 -9.56,6.69c-1.83,0 -1.9,-0.77 -1.9,-2l0,-0.31l0,-9.3z" class="st0"/>
   <path id="svg_2" fill="#009046" clip-rule="evenodd" fill-rule="evenodd" d="m59.92,11.16l0,24.69c0,1.77 0,2.43 -1.65,2.43c-1.16,0 -2.33,-0.45 -3.55,-0.45c-2.2,0 -3.79,1.61 -3.79,4.25c0,2.91 1.47,4.39 4.34,4.39c1.04,0 5.13,-0.58 11.96,-0.58c4.48,0 7.3,0.65 8.52,0.65c2.75,0 4.4,-1.68 4.4,-4.65c0,-2.58 -1.59,-4.13 -3.73,-4.13c-1.28,0 -2.57,0.39 -3.67,0.39c-1.4,0 -1.65,-0.39 -1.65,-1.81l0,-0.56l0,-24.76c0,-1.77 0,-2.36 1.65,-2.36c1.17,0 2.39,0.38 3.61,0.38c2.26,0 3.73,-1.54 3.73,-4.16c0,-2.88 -1.47,-4.42 -4.34,-4.42c-1.04,0 -5.07,0.58 -11.9,0.58c-4.48,0 -7.29,-0.58 -8.52,-0.58c-2.75,0 -4.4,1.61 -4.4,4.55c0,2.56 1.59,4.09 3.73,4.09c1.28,0 2.57,-0.38 3.67,-0.38c1.53,0 1.59,0.6 1.59,2.08l0,0.36z" class="st0"/>
   <path id="svg_3" fill="#009046" clip-rule="evenodd" fill-rule="evenodd" d="m91.63,35.9c0,1.72 0,2.38 -1.65,2.38c-1.17,0 -2.33,-0.45 -3.55,-0.45c-2.2,0 -3.79,1.61 -3.79,4.25c0,2.91 1.53,4.39 4.4,4.39c0.61,0.64 5.41,0.03 14.83,0.03c11.44,0 18.25,0.54 19.39,0.54c2.66,0 3.86,-1.32 3.86,-4.57c0,-1.76 -0.17,-3.32 -0.17,-4.64c0,-2.89 0.51,-5.38 0.51,-7.27c0,-3.42 -1.82,-5.64 -4.83,-5.64c-2.56,0 -4.09,2.01 -4.09,3.96c0,1.21 0.17,2.56 0.17,3.84c0,5.31 -2.71,5.38 -8.8,5.38c-4.25,0 -6.23,-0.74 -6.23,-3.77l0,-7.6c0.96,-0.2 1.6,-0.34 1.92,-0.34c1.79,0 2.92,0.81 2.92,2.02c0,0.88 -0.17,1.75 -0.17,2.63c0,1.61 1.04,2.75 3.01,2.75c2.37,0 3.64,-1.28 3.64,-3.49c0,-1.15 -0.52,-3.43 -0.52,-6.85c0,-3.78 0.6,-6.41 0.6,-7.99c0,-2.48 -1.29,-3.79 -3.72,-3.79c-1.97,0 -3.01,1.24 -3.01,2.89c0,0.9 0.17,1.8 0.17,2.69c0,1.24 -1.13,2 -2.92,2c-0.45,0 -1.09,-0.07 -1.92,-0.28l0,-6.4c0,-2.83 0.96,-3.65 5.77,-3.65l0.87,0c5.37,0 7.99,0.14 7.99,5.16c-0.72,1.24 -0.9,2.41 -0.9,3.58c0,2 1.57,3.86 4.1,3.86c3.01,0 4.82,-2.07 4.82,-5.37c0,-2.07 -0.49,-4.27 -0.49,-6.54c0,-1.76 0.12,-3.29 0.12,-4.68c0,-2.8 -1.26,-3.94 -3.85,-3.94c-2.11,0 -8.5,0.54 -18.96,0.54c-9.11,0 -13.62,-0.67 -14.17,-0.67c-2.75,0 -4.34,1.67 -4.34,4.73c0,2.66 1.59,4.29 3.73,4.29c1.28,0 2.51,-0.41 3.61,-0.41c1.65,0 1.65,0.69 1.65,2.41l0,24.02z" class="st0"/>
   <path id="svg_4" fill="#009046" clip-rule="evenodd" fill-rule="evenodd" d="m149.24,13.6l0,-1.33c0,-3.58 0.19,-3.65 3.85,-3.65l0.43,0c5.84,0 8.32,4.35 8.32,14.25c0,10.74 -2.67,15.51 -8.69,15.51c-3.66,0 -3.91,-0.28 -3.91,-3.09l0,-1.89l0,-19.8zm-11.18,-2.32l0,25.66c0,1.9 0,2.48 -1.65,2.48c-1.17,0 -2.39,-0.44 -3.61,-0.44c-2.2,0 -3.79,1.58 -3.79,4.17c0,2.83 1.65,4.47 4.28,4.47c0.98,0 3.61,-0.56 8.19,-0.56c6.78,-0.67 10.99,-0.26 12.79,-0.26c12.01,0 18.75,-8.42 18.75,-23.23c0,-16.65 -6.51,-23.57 -20.43,-23.57c-3.16,0 -6.53,0.34 -10.19,0.34c-4.77,0.82 -7.77,0.19 -8.99,0.19c-2.75,0 -4.4,1.64 -4.4,4.6c0,2.53 1.59,4.04 3.73,4.04c1.28,0 2.57,-0.38 3.67,-0.38c1.65,0 1.65,0.6 1.65,2.49z" class="st0"/>
   <path id="svg_5" fill="#009046" clip-rule="evenodd" fill-rule="evenodd" d="m195.67,10.52c0,-1.69 0.74,-2.01 3.82,-2.01c5.03,0 7.65,1.69 7.65,6.12c0,4.26 -2.96,5.87 -8.79,5.87c-2.61,0 -2.68,-0.32 -2.68,-2.01l0,-7.97zm-10.05,2.11l0,23.77l0,0.33c0,1.33 -0.06,1.97 -1.35,1.97c-0.79,0 -1.83,-0.31 -2.93,-0.31c-2.26,0 -3.55,1.39 -3.55,3.98c0,2.97 1.35,4.42 3.98,4.42c0.55,0 3.54,-0.5 9.02,-0.5c5.63,0 8.57,0.5 9.05,0.5c2.67,0 4.11,-1.51 4.11,-4.48c0,-2.47 -1.3,-3.73 -3.22,-3.73c-0.96,0 -2.05,0.31 -3.21,0.31c-1.64,0 -1.85,-0.63 -1.85,-2.03l0,-0.46l0,-4.18c0,-3.05 0.68,-3.31 3.49,-3.31c6.09,0 8,1.32 8,6.36c0,0.93 -0.07,2.26 -0.07,3.88c0,5.05 2.15,7.58 6.31,7.58c1.04,0 2.02,-0.19 3,-0.19c1.65,0 3.05,0.32 4.28,0.32c3.67,0 5.5,-1.58 5.5,-4.74c0,-3.3 -1.47,-4.97 -3.42,-4.97c-1.47,0 -2.51,0.48 -3.06,0.48c-1.22,0 -1.47,-0.97 -1.47,-2.57c0,-0.91 0.06,-1.96 0.06,-3.14c0,-1.05 -0.06,-2.1 -0.24,-3.21c-0.8,-3.98 -3,-5.79 -7.71,-6.77c5.51,0.18 7.98,-2.88 7.98,-9.65c0,-8.01 -4.47,-12.18 -12.79,-12.18c-4.7,0 -9.12,0.71 -13.09,0.71c-6.88,0.48 -10.37,-0.36 -10.92,-0.36c-2.26,0 -3.67,1.67 -3.67,4.68c0,2.56 1.29,3.96 3.37,3.96c1.16,0 2.2,-0.38 3.05,-0.38c1.29,0 1.35,0.59 1.35,1.99l0,1.92z" class="st0"/>
   <path id="svg_6" fill="#009046" clip-rule="evenodd" fill-rule="evenodd" d="m255.92,23.02l-7.12,0l3.56,-13.25l3.56,13.25zm-12.4,-18.18l-8.71,28.99c-0.74,2.62 -1.23,4.24 -2.64,4.24c-1.35,0 -2.45,-0.38 -3.31,-0.38c-1.9,0 -3.5,1.51 -3.5,4.01c0,2.94 1.66,4.63 4.6,4.63c1.66,0 4.3,-0.62 8.04,-0.62s6.26,0.43 7.55,0.43c3.86,0 5.77,-1.56 5.77,-4.69c0,-2.19 -1.17,-3.51 -3.44,-3.51l-0.67,0c-1.17,0 -1.78,-0.54 -1.78,-1.56c0,-0.22 0,-0.51 0.12,-0.95l1.16,-4.01c2.58,-0.14 4.36,-0.28 5.47,-0.28c1.84,0 3.92,0.14 6.25,0.28l0.8,4.01c0.12,0.51 0.12,0.88 0.12,1.02c0,0.88 -0.55,1.49 -1.77,1.49l-0.68,0c-2.27,0 -3.5,1.32 -3.5,3.51c0,3.13 1.97,4.69 5.83,4.69c1.29,0 3.74,-0.43 7.49,-0.43c3.74,0 6.44,0.62 8.04,0.62c2.94,0 4.6,-1.69 4.6,-4.63c0,-2.5 -1.6,-4.01 -3.5,-4.01c-0.92,0 -2.02,0.38 -3.31,0.38c-1.41,0 -1.91,-1.54 -2.64,-4.24l-8.71,-28.99c-1.48,-4.5 -2.64,-4.56 -8.84,-4.56c-5.83,0 -7.36,0 -8.84,4.56z" class="st0"/>
   <path id="svg_7" fill="#009046" clip-rule="evenodd" fill-rule="evenodd" d="m7.83,93.06l0,24.37l0,0.32c0,1.4 -0.06,1.9 -1.59,1.9c-0.8,0 -1.84,-0.44 -2.94,-0.44c-1.89,0 -3.3,1.52 -3.3,4.1c0,2.84 1.47,4.48 3.67,4.48c0.43,0 3.36,-0.63 9.86,-0.63c5.61,0 9.2,0.63 10.12,0.63c3.16,0 5.06,-1.64 5.06,-4.42c0,-2.58 -1.83,-4.22 -4.64,-4.22c-1.76,0 -3.31,0.57 -4.43,0.57c-1.27,0 -1.76,-0.44 -1.76,-1.59l0,-0.7l0,-4.01c0,-0.45 0.35,-0.71 1.19,-0.71c0.43,0 1.13,0.13 2.04,0.13c6.55,0 10.58,-0.26 13.64,-2.86c2.94,-2.54 4.64,-6.69 4.64,-12.31c0,-10.09 -5.05,-15.78 -14.27,-15.78c-3.09,0 -7.24,0.89 -11.94,0.89c-5.66,-0.25 -8.78,-0.89 -9.33,-0.89c-2.38,0 -3.79,1.6 -3.79,4.67c0,2.56 1.35,3.97 3.24,3.97c1.23,0 2.26,-0.39 3,-0.39c1.47,0 1.53,0.59 1.53,2.01l0,0.91zm10.05,-0.23c0,-2 0.63,-2.3 4.29,-2.3c4.71,0 7.17,2.53 7.17,7.22c0,4.31 -3.23,6.69 -9.56,6.69c-1.83,0 -1.9,-0.77 -1.9,-2l0,-0.31l0,-9.3z" class="st0"/>
   <path id="svg_8" fill="#009046" clip-rule="evenodd" fill-rule="evenodd" d="m66.8,104.44l-7.12,0l3.56,-13.25l3.56,13.25zm-12.39,-18.17l-8.72,28.98c-0.73,2.63 -1.22,4.24 -2.63,4.24c-1.35,0 -2.46,-0.37 -3.32,-0.37c-1.9,0 -3.5,1.5 -3.5,4c0,2.94 1.66,4.63 4.61,4.63c1.65,0 4.29,-0.62 8.03,-0.62c3.75,0 6.26,0.44 7.55,0.44c3.87,0 5.77,-1.57 5.77,-4.7c0,-2.19 -1.17,-3.5 -3.44,-3.5l-0.67,0c-1.17,0 -1.78,-0.55 -1.78,-1.57c0,-0.22 0,-0.51 0.12,-0.95l1.17,-4.01c2.57,-0.14 4.35,-0.27 5.46,-0.27c1.84,0 3.93,0.13 6.26,0.27l0.8,4.01c0.12,0.52 0.12,0.88 0.12,1.03c0,0.87 -0.55,1.49 -1.78,1.49l-0.68,0c-2.27,0 -3.49,1.31 -3.49,3.5c0,3.13 1.96,4.7 5.83,4.7c1.28,0 3.74,-0.44 7.48,-0.44c3.74,0 6.44,0.62 8.04,0.62c2.94,0 4.61,-1.69 4.61,-4.63c0,-2.5 -1.6,-4 -3.51,-4c-0.92,0 -2.02,0.37 -3.31,0.37c-1.41,0 -1.9,-1.54 -2.64,-4.24l-8.71,-28.98c-1.47,-4.51 -2.64,-4.57 -8.84,-4.57c-5.83,0 -7.36,0 -8.83,4.57z" class="st0"/>
   <path id="svg_9" fill="#009046" clip-rule="evenodd" fill-rule="evenodd" d="m97.29,93.06l0,24.37l0,0.32c0,1.4 -0.06,1.9 -1.59,1.9c-0.8,0 -1.83,-0.44 -2.94,-0.44c-1.89,0 -3.3,1.52 -3.3,4.1c0,2.84 1.47,4.48 3.67,4.48c0.43,0 3.36,-0.63 9.86,-0.63c5.62,0 9.2,0.63 10.12,0.63c3.16,0 5.06,-1.64 5.06,-4.42c0,-2.58 -1.83,-4.22 -4.64,-4.22c-1.76,0 -3.31,0.57 -4.43,0.57c-1.27,0 -1.76,-0.44 -1.76,-1.59l0,-0.7l0,-4.01c0,-0.45 0.35,-0.71 1.2,-0.71c0.42,0 1.12,0.13 2.04,0.13c6.54,0 10.58,-0.26 13.63,-2.86c2.94,-2.54 4.65,-6.69 4.65,-12.31c0,-10.09 -5.06,-15.78 -14.27,-15.78c-3.1,0 -7.25,0.89 -11.95,0.89c-5.66,-0.25 -8.77,-0.89 -9.33,-0.89c-2.38,0 -3.79,1.6 -3.79,4.67c0,2.56 1.35,3.97 3.24,3.97c1.23,0 2.27,-0.39 3,-0.39c1.47,0 1.53,0.59 1.53,2.01l0,0.91zm10.05,-0.23c0,-2 0.63,-2.3 4.29,-2.3c4.71,0 7.18,2.53 7.18,7.22c0,4.31 -3.24,6.69 -9.57,6.69c-1.83,0 -1.9,-0.77 -1.9,-2l0,-0.31l0,-9.3z" class="st0"/>
   <path id="svg_10" fill="#009046" clip-rule="evenodd" fill-rule="evenodd" d="m140.32,117.32c0,1.73 0,2.38 -1.65,2.38c-1.16,0 -2.32,-0.45 -3.55,-0.45c-2.2,0 -3.79,1.61 -3.79,4.26c0,2.9 1.53,4.38 4.41,4.38c0.61,0.64 5.4,0.03 14.82,0.03c11.44,0 18.25,0.54 19.39,0.54c2.67,0 3.86,-1.32 3.86,-4.56c0,-1.77 -0.17,-3.32 -0.17,-4.65c0,-2.89 0.51,-5.38 0.51,-7.26c0,-3.43 -1.81,-5.64 -4.82,-5.64c-2.56,0 -4.09,2.01 -4.09,3.96c0,1.21 0.17,2.55 0.17,3.83c0,5.31 -2.71,5.38 -8.8,5.38c-4.25,0 -6.24,-0.74 -6.24,-3.77l0,-7.6c0.96,-0.2 1.6,-0.33 1.92,-0.33c1.79,0 2.93,0.81 2.93,2.02c0,0.87 -0.18,1.74 -0.18,2.62c0,1.61 1.05,2.75 3.01,2.75c2.37,0 3.65,-1.27 3.65,-3.49c0,-1.14 -0.52,-3.43 -0.52,-6.85c0,-3.78 0.59,-6.4 0.59,-7.99c0,-2.48 -1.29,-3.79 -3.72,-3.79c-1.96,0 -3.01,1.24 -3.01,2.9c0,0.89 0.18,1.79 0.18,2.68c0,1.24 -1.14,2 -2.93,2c-0.45,0 -1.09,-0.07 -1.92,-0.28l0,-6.4c0,-2.82 0.96,-3.65 5.77,-3.65l0.87,0c5.38,0 8,0.14 8,5.17c-0.73,1.23 -0.91,2.4 -0.91,3.57c0,2 1.57,3.86 4.1,3.86c3.01,0 4.82,-2.07 4.82,-5.37c0,-2.06 -0.48,-4.27 -0.48,-6.54c0,-1.75 0.12,-3.28 0.12,-4.68c0,-2.79 -1.27,-3.94 -3.86,-3.94c-2.11,0 -8.49,0.55 -18.95,0.55c-9.12,0 -13.62,-0.68 -14.18,-0.68c-2.75,0 -4.34,1.67 -4.34,4.73c0,2.66 1.59,4.3 3.73,4.3c1.29,0 2.51,-0.42 3.61,-0.42c1.65,0 1.65,0.69 1.65,2.41l0,24.02z" class="st0"/>
   <path id="svg_11" fill="#009046" clip-rule="evenodd" fill-rule="evenodd" d="m197.88,115.71l0,-23.13c0,-1.77 0.06,-2.44 1.8,-2.44c1.28,0 2.61,0.39 4.02,0.39c2.54,0 4.08,-1.41 4.08,-3.97c0,-3.07 -1.8,-4.67 -4.88,-4.67c-1.14,0 -4.62,0.64 -10.16,0.64c-6.3,0 -9.78,-0.64 -10.58,-0.64c-2.75,0 -4.34,1.6 -4.34,4.54c0,2.56 1.59,4.1 3.73,4.1c1.28,0 2.51,-0.39 3.61,-0.39c1.65,0 1.65,0.67 1.65,2.44l0,24.69c0,1.77 0,2.43 -1.65,2.43c-1.16,0 -2.33,-0.45 -3.55,-0.45c-2.2,0 -3.79,1.61 -3.79,4.26c0,2.9 1.53,4.38 4.4,4.38c0.61,0 5.45,-0.58 15.29,-0.58c11.41,0 17.39,0.52 18.81,0.52c2.67,0 3.92,-1.16 3.92,-4.26c0,-1.35 -0.17,-2.9 -0.17,-4.81c0,-2.62 0.51,-5.17 0.51,-7.36c0,-3.68 -1.81,-5.94 -4.82,-5.94c-2.56,0 -4.09,2.05 -4.09,4.17c0,1.34 0.17,2.69 0.17,4.03c0,4.96 -1.92,5.98 -8.14,5.98c-4.08,0 -5.82,-0.67 -5.82,-3.93z" class="st0"/>
   <path id="svg_12" fill="#91CCAF" clip-rule="evenodd" fill-rule="evenodd" d="m264.25,120.47c-5.52,0 -8.56,-5.22 -8.56,-14.95c0,-9.81 3.11,-14.96 8.56,-14.96c5.46,0 8.57,5.15 8.57,14.96c0,9.73 -3.24,14.95 -8.57,14.95zm19.75,-14.95c0,-15.09 -7.16,-23.6 -19.68,-23.6c-12.62,0 -19.81,8.19 -19.81,23.6c0,15.28 7.13,23.59 19.68,23.59c12.65,0 19.81,-8.57 19.81,-23.59z" class="st1"/>
   <path id="svg_13" fill="#009046" clip-rule="evenodd" fill-rule="evenodd" d="m26.51,175.09l0,23.51c0,1.79 0,2.39 -1.72,2.39c-1.14,0 -2.48,-0.38 -3.8,-0.38c-2.16,0 -3.77,1.52 -3.77,4.06c0,2.92 1.67,4.58 4.45,4.58c0.83,0 4.33,-0.64 10.4,-0.64s9.64,0.64 10.47,0.64c2.8,0 4.48,-1.66 4.48,-4.58c0,-2.54 -1.62,-4.06 -3.8,-4.06c-1.32,0 -2.66,0.38 -3.8,0.38c-1.47,0 -1.72,-0.38 -1.72,-1.82l0,-0.57l0,-23.51c0,-0.29 -0.07,-0.65 -0.07,-0.94c0,-1.72 1.08,-2.79 2.87,-2.79c1.53,0 2.35,1.14 2.35,3.44c0,1.86 -0.38,3.58 -0.38,5.3c0,2.44 1.68,4.23 4.55,4.23c3.36,0 5.29,-2.08 5.29,-5.3c0,-1.94 -0.56,-4.23 -0.56,-6.74c0,-1.9 0.19,-3.76 0.19,-5.62c0,-2.37 -1.37,-3.72 -4.24,-3.72c-1.06,0 -6.37,0.45 -15.63,0.45c-9.25,0 -14.48,-0.45 -15.53,-0.45c-2.85,0 -4.27,1.35 -4.27,3.72c0,1.86 0.18,3.72 0.18,5.62c0,2.51 -0.55,4.8 -0.55,6.74c0,3.22 1.92,5.3 5.26,5.3c2.84,0 4.58,-1.79 4.58,-4.23c0,-1.72 -0.44,-3.44 -0.44,-5.3c0,-2.3 0.88,-3.44 2.41,-3.44c1.78,0 2.86,1.07 2.86,2.79c0,0.29 -0.06,0.65 -0.06,0.94z" class="st0"/>
   <path id="svg_14" fill="#009046" clip-rule="evenodd" fill-rule="evenodd" d="m62.75,174l0,24.69c0,1.77 0,2.44 -1.65,2.44c-1.16,0 -2.32,-0.46 -3.55,-0.46c-2.2,0 -3.79,1.62 -3.79,4.26c0,2.9 1.47,4.38 4.34,4.38c1.04,0 5.13,-0.58 11.96,-0.58c4.48,0 7.3,0.65 8.52,0.65c2.75,0 4.4,-1.68 4.4,-4.64c0,-2.58 -1.59,-4.14 -3.73,-4.14c-1.28,0 -2.56,0.4 -3.67,0.4c-1.4,0 -1.65,-0.4 -1.65,-1.81l0,-0.57l0,-24.76c0,-1.77 0,-2.36 1.65,-2.36c1.17,0 2.39,0.38 3.61,0.38c2.27,0 3.73,-1.53 3.73,-4.15c0,-2.88 -1.46,-4.42 -4.34,-4.42c-1.04,0 -5.07,0.58 -11.9,0.58c-4.48,0 -7.29,-0.58 -8.52,-0.58c-2.75,0 -4.4,1.6 -4.4,4.54c0,2.56 1.59,4.1 3.73,4.1c1.29,0 2.57,-0.39 3.67,-0.39c1.53,0 1.59,0.6 1.59,2.09l0,0.35z" class="st0"/>
   <path id="svg_15" fill="#009046" clip-rule="evenodd" fill-rule="evenodd" d="m105.89,174.03l0,15.62c0,1.08 0.12,2.01 0.12,3.02c0,6.26 -2.86,9.71 -7.48,9.71c-3.28,0 -5.35,-2.23 -5.35,-5.03c0,-0.58 0.25,-0.87 0.67,-0.87c0.49,0 0.73,1.87 3.04,1.87c3.1,0 4.93,-2.16 4.93,-5.9c0,-4.67 -3.22,-8.06 -7.54,-8.06c-5.67,0 -10.01,4.75 -10.01,12.02c0,9.03 5.59,14.59 15.42,14.59c6.08,0 11.1,-2.17 14.04,-5.7c3.07,-3.71 3.07,-7.52 3.07,-12.42c0,-0.5 0.06,-1.43 0.06,-2.87l0,-16.12c0,-1.8 0,-2.39 1.59,-2.39c1.16,0 2.32,0.38 3.49,0.38c2.14,0 3.6,-1.53 3.6,-4.15c0,-2.95 -1.4,-4.42 -4.22,-4.42c-0.97,0 -4.83,0.58 -11.39,0.58c-4.65,0 -7.57,-0.58 -8.9,-0.58c-2.98,0 -4.62,1.66 -4.62,4.54c0,2.5 1.64,4.1 3.58,4.1c1.16,0 2.43,-0.39 3.77,-0.39c2.13,0 2.13,0.46 2.13,2.47z" class="st0"/>
   <path id="svg_16" fill="#009046" clip-rule="evenodd" fill-rule="evenodd" d="m135.23,198.75c0,1.72 0,2.38 -1.65,2.38c-1.17,0 -2.33,-0.46 -3.55,-0.46c-2.2,0 -3.79,1.62 -3.79,4.26c0,2.9 1.53,4.38 4.4,4.38c0.61,0.64 5.4,0.03 14.83,0.03c11.44,0 18.25,0.55 19.38,0.55c2.67,0 3.87,-1.32 3.87,-4.57c0,-1.77 -0.17,-3.32 -0.17,-4.65c0,-2.89 0.51,-5.38 0.51,-7.26c0,-3.43 -1.82,-5.64 -4.83,-5.64c-2.56,0 -4.09,2.01 -4.09,3.96c0,1.21 0.17,2.55 0.17,3.83c0,5.31 -2.71,5.38 -8.8,5.38c-4.25,0 -6.23,-0.74 -6.23,-3.76l0,-7.6c0.96,-0.2 1.6,-0.34 1.92,-0.34c1.79,0 2.92,0.81 2.92,2.02c0,0.87 -0.17,1.75 -0.17,2.62c0,1.61 1.04,2.76 3.01,2.76c2.37,0 3.64,-1.28 3.64,-3.5c0,-1.14 -0.52,-3.43 -0.52,-6.84c0,-3.79 0.6,-6.41 0.6,-8c0,-2.47 -1.29,-3.78 -3.72,-3.78c-1.97,0 -3.01,1.24 -3.01,2.89c0,0.89 0.17,1.79 0.17,2.69c0,1.24 -1.13,1.99 -2.92,1.99c-0.45,0 -1.09,-0.07 -1.92,-0.27l0,-6.41c0,-2.82 0.96,-3.65 5.77,-3.65l0.87,0c5.37,0 7.99,0.14 7.99,5.17c-0.72,1.24 -0.9,2.41 -0.9,3.58c0,1.99 1.56,3.85 4.09,3.85c3.02,0 4.83,-2.06 4.83,-5.37c0,-2.06 -0.49,-4.26 -0.49,-6.54c0,-1.75 0.12,-3.28 0.12,-4.68c0,-2.79 -1.26,-3.93 -3.85,-3.93c-2.11,0 -8.5,0.54 -18.96,0.54c-9.11,0 -13.62,-0.68 -14.17,-0.68c-2.75,0 -4.34,1.68 -4.34,4.74c0,2.66 1.59,4.29 3.73,4.29c1.28,0 2.5,-0.41 3.61,-0.41c1.65,0 1.65,0.68 1.65,2.41l0,24.02z" class="st0"/>
   <path id="svg_17" fill="#009046" clip-rule="evenodd" fill-rule="evenodd" d="m191.71,173.37c0,-1.69 0.73,-2.01 3.82,-2.01c5.03,0 7.64,1.69 7.64,6.11c0,4.27 -2.95,5.88 -8.78,5.88c-2.62,0 -2.68,-0.32 -2.68,-2.01l0,-7.97zm-10.05,2.11l0,23.76l0,0.34c0,1.32 -0.06,1.97 -1.35,1.97c-0.79,0 -1.83,-0.32 -2.93,-0.32c-2.27,0 -3.55,1.39 -3.55,3.98c0,2.97 1.34,4.43 3.97,4.43c0.55,0 3.55,-0.51 9.03,-0.51c5.63,0 8.57,0.51 9.05,0.51c2.67,0 4.1,-1.52 4.1,-4.49c0,-2.46 -1.3,-3.73 -3.21,-3.73c-0.96,0 -2.05,0.32 -3.22,0.32c-1.64,0 -1.84,-0.64 -1.84,-2.03l0,-0.47l0,-4.17c0,-3.05 0.68,-3.32 3.49,-3.32c6.08,0 8,1.33 8,6.37c0,0.93 -0.07,2.25 -0.07,3.87c0,5.06 2.15,7.58 6.31,7.58c1.04,0 2.01,-0.19 2.99,-0.19c1.65,0 3.06,0.32 4.28,0.32c3.67,0 5.51,-1.58 5.51,-4.74c0,-3.3 -1.47,-4.97 -3.43,-4.97c-1.46,0 -2.5,0.49 -3.05,0.49c-1.23,0 -1.47,-0.97 -1.47,-2.58c0,-0.91 0.06,-1.95 0.06,-3.14c0,-1.04 -0.06,-2.09 -0.25,-3.21c-0.79,-3.97 -2.99,-5.79 -7.7,-6.77c5.5,0.18 7.98,-2.88 7.98,-9.64c0,-8.02 -4.48,-12.19 -12.8,-12.19c-4.69,0 -9.12,0.72 -13.09,0.72c-6.87,0.47 -10.36,-0.36 -10.91,-0.36c-2.26,0 -3.67,1.66 -3.67,4.67c0,2.56 1.28,3.97 3.36,3.97c1.17,0 2.2,-0.39 3.06,-0.39c1.29,0 1.35,0.6 1.35,1.99l0,1.93z" class="st0"/>
   <path id="svg_18" fill="#009046" clip-rule="evenodd" fill-rule="evenodd" d="m251.95,185.86l-7.11,0l3.56,-13.24l3.55,13.24zm-12.39,-18.17l-8.71,28.98c-0.74,2.63 -1.23,4.24 -2.64,4.24c-1.35,0 -2.46,-0.37 -3.31,-0.37c-1.91,0 -3.5,1.5 -3.5,4c0,2.95 1.65,4.64 4.6,4.64c1.66,0 4.29,-0.63 8.04,-0.63c3.74,0 6.26,0.44 7.54,0.44c3.87,0 5.77,-1.57 5.77,-4.7c0,-2.19 -1.16,-3.5 -3.43,-3.5l-0.68,0c-1.16,0 -1.78,-0.54 -1.78,-1.56c0,-0.22 0,-0.52 0.12,-0.95l1.17,-4.01c2.58,-0.14 4.36,-0.28 5.46,-0.28c1.84,0 3.93,0.14 6.26,0.28l0.8,4.01c0.12,0.51 0.12,0.87 0.12,1.02c0,0.87 -0.55,1.49 -1.78,1.49l-0.67,0c-2.27,0 -3.5,1.31 -3.5,3.5c0,3.13 1.96,4.7 5.83,4.7c1.29,0 3.74,-0.44 7.48,-0.44c3.75,0 6.45,0.63 8.04,0.63c2.95,0 4.61,-1.69 4.61,-4.64c0,-2.5 -1.6,-4 -3.5,-4c-0.92,0 -2.03,0.37 -3.32,0.37c-1.41,0 -1.9,-1.54 -2.64,-4.24l-8.71,-28.98c-1.47,-4.51 -2.64,-4.56 -8.83,-4.56c-5.83,0 -7.37,0 -8.84,4.56z" class="st0"/>
  </g>
 </g>
</svg>