<svg width="66" height="125.00000000000001" xmlns="http://www.w3.org/2000/svg" style="vector-effect: non-scaling-stroke;" fill="none">

 <g>
  <title>Layer 1</title>
  <g id="svg_5">
   <path id="svg_1" fill="#FFCAB9" d="m60.59829,38.15283c-2.6667,-1.25404 -5.7894,0.01565 -6.9751,2.83563l-7.1267,17.45186l-1.6905,0l0,-11.15945l0,-3.03859l0,-27.9559c0,-3.08619 -2.3655,-5.58845 -5.2839,-5.58845c-2.9183,0 -5.2839,2.50195 -5.2839,5.58845l0,-7.84268c0,-3.08619 -2.3655,-5.58845 -5.2839,-5.58845c-2.918,0 -5.2839,2.5019 -5.2839,5.58845l0,7.84268c0,-3.08619 -2.3655,-5.58845 -5.2839,-5.58845c-2.9183,0 -5.2839,2.50195 -5.2839,5.58845l0,13.22248c0,-3.08619 -2.3655,-5.58845 -5.28389,-5.58845c-2.91801,0 -5.28391,2.50195 -5.28391,5.58845l0,14.73342l0,0.24442l0,25.11762c0,6.3765 3.78571,11.81518 9.1088,13.94654l0,47.27734l31.0263,0l0,-47.27766c3.9563,-1.58424 7.0619,-4.99638 8.3965,-9.26152l0.0362,0.00571l5.0494,-11.81402l7.1267,-16.95118c1.1864,-2.81998 -0.0142,-6.12277 -2.6804,-7.3767z"/>
   <path id="svg_2" fill="#FABBA7" d="m20.72299,16.28639c0,-1.50163 0.563,-2.86176 1.4739,-3.86598c-0.4227,-0.466 -0.9211,-0.85193 -1.4739,-1.14109l0,5.00707z"/>
   <path id="svg_3" fill="black" d="m12.54109,81.04394c-4.4693,-1.78931 -7.47178,-6.38686 -7.47178,-11.43962l0,-7.06904c0,-3.46535 -5.06833,-3.46535 -5.06833,0l0,7.06904c0,6.63192 3.59581,12.71756 9.10881,15.68688l0,46.59464c0,1.48069 1.1343,2.68005 2.5342,2.68005c1.3998,0 2.5341,-1.19936 2.5341,-2.68005l0,-48.3354c0,-1.1139 -0.6518,-2.112 -1.637,-2.50649z"/>
   <path id="svg_4" fill="black" d="m65.74859,40.29233c-0.7491,-2.06165 -2.2128,-3.69126 -4.1205,-4.58856c-3.8928,-1.83003 -8.6236,0.16044 -10.3313,4.22188l-3.9564,9.68849l0,-33.32774c0.1075,-5.66058 -5.619,-9.82068 -10.5678,-7.74047c-0.6017,-11.11902 -15.2117,-11.10936 -15.6358,0c-4.9497,-2.07879 -10.6745,2.07946 -10.5674,7.74089l0,5.48195c-4.94639,-2.07847 -10.67732,2.07879 -10.56784,7.74043l0,19.62499c0,3.46535 5.06833,3.46535 5.06833,0l0,-19.62531c0.14124,-3.85625 5.36161,-3.84917 5.49951,0l0,18.64012c0,3.46535 5.0683,3.46535 5.0683,0c0,-10.6209 0,-21.2417 0,-31.8626c0.1355,-3.84631 5.3596,-3.85773 5.4991,0l0,26.06399c0,3.46535 5.0684,3.46535 5.0684,0l0,-33.90666c0,-1.60349 1.2333,-2.90823 2.7497,-2.90823c1.5165,0 2.7497,1.30437 2.7497,2.90823l0,33.90666c0,3.46535 5.0684,3.46535 5.0684,0l0,-26.06399c0,-1.60348 1.2336,-2.90819 2.75,-2.90819c1.5165,0 2.7498,1.30438 2.7498,2.90819l0,39.53872c-7.4802,0.70724 -13.3331,7.35851 -13.3331,15.31734c0,3.46535 5.0683,3.46535 5.0683,0c0,-7.5143 6.4328,-10.28711 12.4894,-10.02154c1.011,0 1.9256,-0.63575 2.3267,-1.61744l7.116,-17.42574c0.8244,-1.55166 2.0344,-2.04378 3.6292,-1.47562c1.4675,0.87202 1.9327,2.15176 1.3955,3.8388c-3.9969,9.507 -12.2512,28.96478 -12.2512,28.96478c-1.1684,3.51104 -3.7627,6.36677 -6.9395,7.63857c-0.9853,0.3946 -1.6371,1.39227 -1.6371,2.5066l0,47.27734c0,1.48069 1.1343,2.68005 2.5342,2.68005c1.3998,0 2.5341,-1.19936 2.5341,-2.68005l0,-45.54134c3.7668,-2.04769 6.7815,-5.66629 8.2509,-9.98896c4.0797,-9.54454 8.1154,-19.10823 12.1394,-28.67921c0.8477,-2.01797 0.9025,-4.26471 0.153,-6.32636z"/>
  </g>
 </g>
</svg>