<svg width="320" height="240" xmlns="http://www.w3.org/2000/svg" xml:space="preserve" version="1.1">

 <g>
  <title>Layer 1</title>
  <g id="svg_1">
   <path id="svg_2" clip-rule="evenodd" fill-rule="evenodd" d="m16.44,11.55l-10.3,0l0,-6.43l10.3,0c1.37,0 2.47,0.6 2.47,1.3l0,3.79c0,0.75 -1.1,1.34 -2.47,1.34zm-16.44,-9.52l0,24.3l6.14,0l0,-11.69l14.15,0c2.58,0 4.76,-1.06 4.76,-2.39l0,-7.83c0,-1.33 -2.18,-2.39 -4.76,-2.39l-20.29,0z" class="st0"/>
   <path id="svg_3" clip-rule="evenodd" fill-rule="evenodd" d="m37.66,26.02l0,-13.91l3.91,0c1.45,0 2.55,0.54 2.55,1.23l6.14,0l0,-1.96c0,-1.32 -2.16,-2.37 -4.77,-2.37l-13.98,0l0,17.01l6.15,0z" class="st0"/>
   <path id="svg_4" clip-rule="evenodd" fill-rule="evenodd" d="m66.8,13.39l0,1.32c0,0.71 -1.1,1.28 -2.47,1.28l-3.99,0l0,-2.6c0,-0.71 1.1,-1.28 2.48,-1.28l1.51,0c1.37,0 2.47,0.57 2.47,1.28zm6.15,3.29l0,-5.3c0,-1.32 -2.16,-2.37 -4.77,-2.37l-9.21,0c-2.61,0 -4.77,1.05 -4.77,2.37l0,12.26c0,1.32 2.16,2.41 4.77,2.41l11.17,0l1.44,-3.1l-8.76,0c-1.38,0 -2.48,-0.56 -2.48,-1.27l0,-2.59l7.84,0c2.61,0 4.77,-1.09 4.77,-2.41z" class="st0"/>
   <path id="svg_5" clip-rule="evenodd" fill-rule="evenodd" d="m98.16,12.11l0,-3.1l-13.98,0c-2.61,0 -4.77,1.09 -4.77,2.4l0,5.27c0,1.35 2.16,2.41 4.77,2.41l5.29,0c1.44,0 2.54,0.57 2.54,1.27l0,1.32c0,0.71 -1.1,1.27 -2.54,1.27l-10.06,0l0,3.1l13.98,0c2.61,0 4.77,-1.06 4.77,-2.41l0,-5.24c0,-1.32 -2.16,-2.41 -4.77,-2.41l-5.36,0c-1.38,0 -2.48,-0.57 -2.48,-1.28l0,-1.32c0,-0.71 1.1,-1.28 2.48,-1.28l10.13,0z" class="st0"/>
   <path id="svg_6" clip-rule="evenodd" fill-rule="evenodd" d="m103.36,4.34l0,-3.24l6.01,-0.76l0,3.24l-6.01,0.76zm0.13,21.83l0,-16.46l6.01,-0.76l0,17.22l-6.01,0z" class="st0"/>
   <path id="svg_7" clip-rule="evenodd" fill-rule="evenodd" d="m129.83,21.7c0,0.7 -1.17,1.25 -2.55,1.25l-1.44,0c-1.37,0 -2.47,-0.55 -2.47,-1.25l0,-8.34c0,-0.7 1.1,-1.25 2.47,-1.25l1.44,0c1.38,0 2.55,0.55 2.55,1.25l0,8.34zm1.39,-12.69l-9.22,0c-2.69,0 -4.78,1.09 -4.78,2.4l0,12.23c0,1.32 2.09,2.41 4.78,2.41l9.22,0c2.64,0 4.75,-1.09 4.75,-2.41l0,-12.23c0,-1.31 -2.11,-2.4 -4.75,-2.4z" class="st0"/>
   <path id="svg_8" clip-rule="evenodd" fill-rule="evenodd" d="m147.32,26.02l0,-13.91l3.98,0c1.31,0 2.48,0.51 2.48,1.23l0,12.68l6.14,0l0,-14.64c0,-1.32 -2.22,-2.37 -4.77,-2.37l-13.98,0l0,17.01l6.15,0z" class="st0"/>
   <path id="svg_9" clip-rule="evenodd" fill-rule="evenodd" d="m175,22.95c-1.37,0 -2.47,-0.56 -2.47,-1.27l0,-1.32c0,-0.7 1.1,-1.27 2.47,-1.27l3.99,0l0,3.86l-3.99,0zm5.37,-13.94l-9.8,0l-1.44,3.1l7.31,0c1.38,0 2.55,0.57 2.55,1.28l0,1.32c0,0.71 -1.17,1.28 -2.55,1.28l-5.35,0c-2.62,0 -4.71,1.06 -4.71,2.41l0,5.24c0,1.32 2.09,2.41 4.71,2.41l7.9,0l6.14,0l0,-14.67c0,-1.32 -2.11,-2.37 -4.76,-2.37zm-8.17,-1.44l5.55,-2.88l6.52,0l-5.35,2.88l-6.72,0z" class="st0"/>
   <path id="svg_10" clip-rule="evenodd" fill-rule="evenodd" d="m201.67,29.96l0,1.99c0,1.29 1.99,2.37 4.76,2.37l10.47,0c2.58,0 4.78,-1.08 4.78,-2.37l0,-23.17l-6.14,0.72l0,20.46c0,0.69 -1.4,1.27 -2.96,1.27l-1.72,0c-1.73,0 -3.04,-0.58 -3.04,-1.27l-6.15,0zm13.87,-26.02l0,-3.22l6.14,-0.72l0,3.22l-6.14,0.72z" class="st0"/>
   <path id="svg_11" clip-rule="evenodd" fill-rule="evenodd" d="m239.49,9.03l0,13.92l-3.99,0c-1.3,0 -2.47,-0.58 -2.47,-1.23l0,-12.69l-6.15,0l0,14.61c0,1.35 2.1,2.41 4.78,2.41l13.97,0l0,-17.02l-6.14,0z" class="st0"/>
   <path id="svg_12" clip-rule="evenodd" fill-rule="evenodd" d="m264.7,21.72c0,0.66 -1.16,1.25 -2.45,1.25l-1.57,0c-1.29,0 -2.44,-0.59 -2.44,-1.25l0,-8.36c0,-0.7 1.15,-1.25 2.44,-1.25l4.02,0l0,9.61zm1.38,-12.71l-9.23,0c-2.64,0 -4.76,1.08 -4.76,2.41l0,12.25c0,1.33 2.12,2.39 4.76,2.39l7.85,0l0,3.98c0,0.69 -1.16,1.19 -2.45,1.19l-1.57,0c-1.29,0 -2.44,-0.5 -2.44,-1.19l-6.15,0l0,1.94c0,1.27 2.12,2.34 4.76,2.34l9.23,0c2.65,0 4.76,-1.07 4.76,-2.34l0,-22.97l-4.76,0z" class="st0"/>
   <path id="svg_13" clip-rule="evenodd" fill-rule="evenodd" d="m284.66,22.95c-1.37,0 -2.47,-0.56 -2.47,-1.27l0,-1.32c0,-0.7 1.1,-1.27 2.47,-1.27l3.99,0l0,3.86l-3.99,0zm5.36,-13.94l-9.79,0l-1.38,3.1l7.25,0c1.45,0 2.55,0.57 2.55,1.28l0,1.32c0,0.71 -1.1,1.28 -2.55,1.28l-5.29,0c-2.61,0 -4.77,1.09 -4.77,2.41l0,5.24c0,1.35 2.16,2.41 4.77,2.41l7.84,0l6.14,0l0,-14.64c0,-1.31 -2.16,-2.4 -4.77,-2.4z" class="st0"/>
   <path id="svg_14" clip-rule="evenodd" fill-rule="evenodd" d="m307.4,26.02l0,-13.91l3.91,0c1.45,0 2.55,0.54 2.55,1.23l6.14,0l0,-1.96c0,-1.32 -2.16,-2.37 -4.77,-2.37l-13.98,0l0,17.01l6.15,0z" class="st0"/>
   <path id="svg_15" clip-rule="evenodd" fill-rule="evenodd" d="m19.54,50.42l0,13.16l-3.92,0c-1.37,0 -2.54,-0.58 -2.54,-1.23l0,-12.69l-6.15,0.76l0,13.85c0,1.35 2.29,2.4 4.77,2.4l7.84,0l0,3.99c0,0.7 -1.03,1.2 -2.48,1.2l-1.44,0c-1.37,0 -2.54,-0.5 -2.54,-1.2l-6.15,0l0,1.89c0,1.35 2.29,2.4 4.77,2.4l9.28,0c2.61,0 4.7,-1.05 4.7,-2.4l0,-22.89l-6.14,0.76z" class="st0"/>
   <path id="svg_16" clip-rule="evenodd" fill-rule="evenodd" d="m58.61,54.02l0,1.32c0,0.71 -1.1,1.28 -2.47,1.28l-3.99,0l0,-2.6c0,-0.72 1.1,-1.29 2.48,-1.29l1.51,0c1.37,0 2.47,0.57 2.47,1.29zm6.15,3.29l0,-5.3c0,-1.32 -2.16,-2.37 -4.78,-2.37l-9.2,0c-2.62,0 -4.77,1.05 -4.77,2.37l0,12.26c0,1.32 2.15,2.4 4.77,2.4l11.17,0l1.43,-3.09l-8.75,0c-1.38,0 -2.48,-0.57 -2.48,-1.28l0,-2.58l7.83,0c2.62,0 4.78,-1.09 4.78,-2.41z" class="st0"/>
   <polygon id="svg_17" clip-rule="evenodd" fill-rule="evenodd" points="71.22000122070312,66.57000732421875 71.22000122070312,41.970001220703125 77.3599853515625,41.25999450683594 77.3599853515625,66.57000732421875 " class="st0"/>
   <path id="svg_18" clip-rule="evenodd" fill-rule="evenodd" d="m95.16,54.02l0,1.32c0,0.71 -1.09,1.28 -2.47,1.28l-3.98,0l0,-2.6c0,-0.72 1.09,-1.29 2.47,-1.29l1.51,0c1.38,0 2.47,0.57 2.47,1.29zm6.15,3.29l0,-5.3c0,-1.32 -2.16,-2.37 -4.77,-2.37l-9.21,0c-2.61,0 -4.77,1.05 -4.77,2.37l0,12.26c0,1.32 2.16,2.4 4.77,2.4l11.17,0l1.44,-3.09l-8.76,0c-1.38,0 -2.47,-0.57 -2.47,-1.28l0,-2.58l7.83,0c2.61,0 4.77,-1.09 4.77,-2.41z" class="st0"/>
   <path id="svg_19" clip-rule="evenodd" fill-rule="evenodd" d="m120.37,62.34c0,0.67 -1.15,1.26 -2.44,1.26l-1.57,0c-1.29,0 -2.45,-0.59 -2.45,-1.26l0,-8.35c0,-0.7 1.16,-1.26 2.45,-1.26l4.01,0l0,9.61zm1.39,-12.7l-9.23,0c-2.65,0 -4.76,1.07 -4.76,2.41l0,12.25c0,1.33 2.11,2.39 4.76,2.39l7.84,0l0,3.97c0,0.7 -1.15,1.2 -2.44,1.2l-1.57,0c-1.29,0 -2.45,-0.5 -2.45,-1.2l-6.14,0l0,1.95c0,1.27 2.11,2.34 4.76,2.34l9.23,0c2.64,0 4.76,-1.07 4.76,-2.34l0,-22.97l-4.76,0z" class="st0"/>
   <path id="svg_20" clip-rule="evenodd" fill-rule="evenodd" d="m131.75,47.16l5.72,-3.02l6.67,0l-5.72,3.02l-6.67,0zm0,19.48l0,-17.14l6.67,0l0,17.14l-6.67,0z" class="st0"/>
   <path id="svg_21" clip-rule="evenodd" fill-rule="evenodd" d="m155.51,49.64l0,3.2l-6.15,0l0,-3.2l6.15,0zm0,13.85l0,3.21l-6.15,0l0,-3.21l6.15,0z" class="st0"/>
   <path id="svg_22" clip-rule="evenodd" fill-rule="evenodd" d="m187.18,53.98l0,8.35c0,0.73 -1.17,1.25 -2.48,1.25l-3.98,0l0,-10.85l3.98,0c1.31,0 2.48,0.59 2.48,1.25zm-6.46,21.26l0,-8.57l7.9,0c2.48,0 4.7,-1.05 4.7,-2.4l0,-12.23c0,-1.35 -2.22,-2.4 -4.7,-2.4l-14.05,0l0,24.88l6.15,0.72z" class="st0"/>
   <path id="svg_23" clip-rule="evenodd" fill-rule="evenodd" d="m199.78,44.97l0,-3.24l6.02,-0.76l0,3.24l-6.02,0.76zm0.13,21.83l0,-16.46l6.02,-0.76l0,17.22l-6.02,0z" class="st0"/>
   <path id="svg_24" clip-rule="evenodd" fill-rule="evenodd" d="m223.73,54.02l0,1.32c0,0.71 -1.1,1.28 -2.47,1.28l-3.99,0l0,-2.6c0,-0.72 1.1,-1.29 2.48,-1.29l1.51,0c1.37,0 2.47,0.57 2.47,1.29zm6.15,3.29l0,-5.3c0,-1.32 -2.16,-2.37 -4.78,-2.37l-9.2,0c-2.62,0 -4.77,1.05 -4.77,2.37l0,12.26c0,1.32 2.15,2.4 4.77,2.4l11.17,0l1.43,-3.09l-8.75,0c-1.38,0 -2.48,-0.57 -2.48,-1.28l0,-2.58l7.83,0c2.62,0 4.78,-1.09 4.78,-2.41z" class="st0"/>
   <path id="svg_25" clip-rule="evenodd" fill-rule="evenodd" d="m239.96,62.33l0,-8.35c0,-0.73 1.17,-1.25 2.47,-1.25l3.99,0l0,10.85l-3.99,0c-1.3,0 -2.47,-0.59 -2.47,-1.25zm6.46,-20.51l0,7.82l-7.83,0c-2.68,0 -4.77,1.05 -4.77,2.4l0,12.23c0,1.35 2.09,2.4 4.77,2.4l13.98,0l0,-25.6l-6.15,0.75z" class="st0"/>
   <path id="svg_26" clip-rule="evenodd" fill-rule="evenodd" d="m265.17,66.65l0,-13.92l3.92,0c1.44,0 2.54,0.55 2.54,1.24l6.14,0l0,-1.96c0,-1.32 -2.15,-2.37 -4.77,-2.37l-13.97,0l0,17.01l6.14,0z" class="st0"/>
   <path id="svg_27" clip-rule="evenodd" fill-rule="evenodd" d="m287.81,63.58c-1.37,0 -2.47,-0.57 -2.47,-1.28l0,-1.31c0,-0.71 1.1,-1.27 2.47,-1.27l3.99,0l0,3.86l-3.99,0zm5.36,-13.94l-9.79,0l-1.38,3.09l7.25,0c1.45,0 2.55,0.57 2.55,1.29l0,1.32c0,0.71 -1.1,1.28 -2.55,1.28l-5.29,0c-2.61,0 -4.77,1.09 -4.77,2.4l0,5.25c0,1.35 2.16,2.4 4.77,2.4l7.84,0l6.14,0l0,-14.63c0,-1.32 -2.16,-2.4 -4.77,-2.4z" class="st0"/>
   <polygon id="svg_28" clip-rule="evenodd" fill-rule="evenodd" points="310.54998779296875,63.660003662109375 310.54998779296875,69.80999755859375 304.4000244140625,66.88999938964844 304.4000244140625,63.660003662109375 " class="st0"/>
   <path id="svg_29" clip-rule="evenodd" fill-rule="evenodd" d="m35.29,95.25l0,8.34c0,0.73 -1.17,1.25 -2.47,1.25l-3.99,0l0,-10.84l3.99,0c1.3,0 2.47,0.59 2.47,1.25zm-6.46,21.26l0,-8.57l7.9,0c2.49,0 4.71,-1.06 4.71,-2.41l0,-12.23c0,-1.35 -2.22,-2.4 -4.71,-2.4l-14.04,0l0,24.89l6.14,0.72z" class="st0"/>
   <path id="svg_30" clip-rule="evenodd" fill-rule="evenodd" d="m56.52,104.84c-1.38,0 -2.48,-0.57 -2.48,-1.27l0,-1.32c0,-0.7 1.1,-1.27 2.48,-1.27l3.98,0l0,3.86l-3.98,0zm5.36,-13.94l-9.8,0l-1.37,3.1l7.25,0c1.44,0 2.54,0.57 2.54,1.28l0,1.32c0,0.71 -1.1,1.28 -2.54,1.28l-5.29,0c-2.62,0 -4.77,1.09 -4.77,2.41l0,5.24c0,1.35 2.15,2.41 4.77,2.41l7.83,0l6.15,0l0,-14.64c0,-1.31 -2.16,-2.4 -4.77,-2.4z" class="st0"/>
   <path id="svg_31" clip-rule="evenodd" fill-rule="evenodd" d="m85.71,95.25l0,8.34c0,0.73 -1.17,1.25 -2.47,1.25l-3.99,0l0,-10.84l3.99,0c1.3,0 2.47,0.59 2.47,1.25zm-6.46,21.26l0,-8.57l7.9,0c2.48,0 4.71,-1.06 4.71,-2.41l0,-12.23c0,-1.35 -2.23,-2.4 -4.71,-2.4l-14.04,0l0,24.89l6.14,0.72z" class="st0"/>
   <path id="svg_32" clip-rule="evenodd" fill-rule="evenodd" d="m110.92,95.28l0,1.32c0,0.71 -1.1,1.28 -2.47,1.28l-3.99,0l0,-2.6c0,-0.71 1.1,-1.28 2.47,-1.28l1.52,0c1.37,0 2.47,0.57 2.47,1.28zm6.15,3.29l0,-5.3c0,-1.32 -2.16,-2.37 -4.78,-2.37l-9.2,0c-2.62,0 -4.77,1.05 -4.77,2.37l0,12.26c0,1.32 2.15,2.41 4.77,2.41l11.16,0l1.44,-3.1l-8.76,0c-1.37,0 -2.47,-0.57 -2.47,-1.27l0,-2.59l7.83,0c2.62,0 4.78,-1.09 4.78,-2.41z" class="st0"/>
   <polygon id="svg_33" clip-rule="evenodd" fill-rule="evenodd" points="123.52999877929688,107.83999633789062 123.52999877929688,83.22999572753906 129.67001342773438,82.52000427246094 129.67001342773438,107.83999633789062 " class="st0"/>
   <path id="svg_34" clip-rule="evenodd" fill-rule="evenodd" d="m162.6,103.59c0,0.7 -1.17,1.25 -2.54,1.25l-1.45,0c-1.37,0 -2.47,-0.55 -2.47,-1.25l0,-8.34c0,-0.7 1.1,-1.25 2.47,-1.25l1.45,0c1.37,0 2.54,0.55 2.54,1.25l0,8.34zm1.39,-12.69l-9.22,0c-2.68,0 -4.77,1.09 -4.77,2.4l0,12.23c0,1.32 2.09,2.41 4.77,2.41l9.22,0c2.64,0 4.75,-1.09 4.75,-2.41l0,-12.23c0,-1.31 -2.11,-2.4 -4.75,-2.4z" class="st0"/>
   <polygon id="svg_35" clip-rule="evenodd" fill-rule="evenodd" points="193.95001220703125,107.91000366210938 193.95001220703125,94 200.55999755859375,94 202.04998779296875,90.89999389648438 193.95001220703125,90.89999389648438 193.95001220703125,82.36000061035156 187.80999755859375,83.08000183105469 187.80999755859375,107.91000366210938 " class="st0"/>
   <path id="svg_36" clip-rule="evenodd" fill-rule="evenodd" d="m205.46,86.23l0,-3.24l6.01,-0.76l0,3.24l-6.01,0.76zm0.12,21.83l0,-16.46l6.02,-0.76l0,17.22l-6.02,0z" class="st0"/>
   <path id="svg_37" clip-rule="evenodd" fill-rule="evenodd" d="m205.46,111.85l0,1.99c0,1.29 1.98,2.37 4.75,2.37l10.47,0c2.59,0 4.79,-1.08 4.79,-2.37l0,-23.17l-6.15,0.72l0,20.46c0,0.69 -1.4,1.27 -2.96,1.27l-1.72,0c-1.73,0 -3.04,-0.58 -3.04,-1.27l-6.14,0zm13.86,-26.02l0,-3.22l6.15,-0.72l0,3.22l-6.15,0.72z" class="st0"/>
   <path id="svg_38" clip-rule="evenodd" fill-rule="evenodd" d="m243.27,95.28l0,1.32c0,0.71 -1.1,1.28 -2.47,1.28l-3.99,0l0,-2.6c0,-0.71 1.1,-1.28 2.47,-1.28l1.52,0c1.37,0 2.47,0.57 2.47,1.28zm6.14,3.29l0,-5.3c0,-1.32 -2.15,-2.37 -4.77,-2.37l-9.2,0c-2.62,0 -4.78,1.05 -4.78,2.37l0,12.26c0,1.32 2.16,2.41 4.78,2.41l11.16,0l1.44,-3.1l-8.76,0c-1.37,0 -2.47,-0.57 -2.47,-1.27l0,-2.59l7.83,0c2.62,0 4.77,-1.09 4.77,-2.41z" class="st0"/>
   <path id="svg_39" clip-rule="evenodd" fill-rule="evenodd" d="m260.76,107.91l0,-13.91l3.92,0c1.44,0 2.54,0.54 2.54,1.23l6.14,0l0,-1.96c0,-1.32 -2.15,-2.37 -4.77,-2.37l-13.98,0l0,17.01l6.15,0z" class="st0"/>
   <path id="svg_40" clip-rule="evenodd" fill-rule="evenodd" d="m283.4,104.84c-1.37,0 -2.47,-0.57 -2.47,-1.27l0,-1.32c0,-0.7 1.1,-1.27 2.47,-1.27l3.99,0l0,3.86l-3.99,0zm5.36,-13.94l-9.8,0l-1.37,3.1l7.25,0c1.45,0 2.55,0.57 2.55,1.28l0,1.32c0,0.71 -1.1,1.28 -2.55,1.28l-5.29,0c-2.61,0 -4.77,1.09 -4.77,2.41l0,5.24c0,1.35 2.16,2.41 4.77,2.41l7.84,0l6.14,0l0,-14.64c0,-1.31 -2.16,-2.4 -4.77,-2.4z" class="st0"/>
   <path id="svg_41" clip-rule="evenodd" fill-rule="evenodd" d="m34.46,146.1c-1.38,0 -2.48,-0.56 -2.48,-1.27l0,-1.31c0,-0.71 1.1,-1.28 2.48,-1.28l3.98,0l0,3.86l-3.98,0zm5.36,-13.94l-9.8,0l-1.37,3.1l7.25,0c1.44,0 2.54,0.57 2.54,1.28l0,1.32c0,0.71 -1.1,1.29 -2.54,1.29l-5.29,0c-2.61,0 -4.77,1.08 -4.77,2.4l0,5.25c0,1.35 2.16,2.4 4.77,2.4l7.83,0l6.15,0l0,-14.63c0,-1.32 -2.16,-2.41 -4.77,-2.41z" class="st0"/>
   <path id="svg_42" clip-rule="evenodd" fill-rule="evenodd" d="m55.93,149.18l0,-13.92l3.99,0c1.3,0 2.47,0.51 2.47,1.23l0,12.69l6.15,0l0,-14.65c0,-1.31 -2.22,-2.37 -4.77,-2.37l-13.98,0l0,17.02l6.14,0z" class="st0"/>
   <polygon id="svg_43" clip-rule="evenodd" fill-rule="evenodd" points="81.1400146484375,149.17999267578125 81.1400146484375,135.260009765625 87.739990234375,135.260009765625 89.239990234375,132.16000366210938 81.1400146484375,132.16000366210938 81.1400146484375,123.6300048828125 75,124.35000610351562 75,149.17999267578125 " class="st0"/>
   <path id="svg_44" clip-rule="evenodd" fill-rule="evenodd" d="m105.25,136.54l0,1.32c0,0.71 -1.1,1.29 -2.48,1.29l-3.98,0l0,-2.61c0,-0.71 1.1,-1.28 2.47,-1.28l1.51,0c1.38,0 2.48,0.57 2.48,1.28zm6.14,3.3l0,-5.31c0,-1.31 -2.15,-2.37 -4.77,-2.37l-9.2,0c-2.62,0 -4.78,1.06 -4.78,2.37l0,12.27c0,1.31 2.16,2.4 4.78,2.4l11.16,0l1.44,-3.1l-8.76,0c-1.37,0 -2.47,-0.56 -2.47,-1.27l0,-2.59l7.83,0c2.62,0 4.77,-1.09 4.77,-2.4z" class="st0"/>
   <path id="svg_45" clip-rule="evenodd" fill-rule="evenodd" d="m136.6,135.26l0,-3.1l-13.97,0c-2.62,0 -4.78,1.09 -4.78,2.41l0,5.27c0,1.35 2.16,2.4 4.78,2.4l5.29,0c1.44,0 2.54,0.57 2.54,1.28l0,1.31c0,0.71 -1.1,1.27 -2.54,1.27l-10.07,0l0,3.1l13.98,0c2.62,0 4.77,-1.05 4.77,-2.4l0,-5.25c0,-1.32 -2.15,-2.4 -4.77,-2.4l-5.36,0c-1.37,0 -2.47,-0.58 -2.47,-1.29l0,-1.32c0,-0.71 1.1,-1.28 2.47,-1.28l10.13,0z" class="st0"/>
   <path id="svg_46" clip-rule="evenodd" fill-rule="evenodd" d="m163.07,144.85l0,-8.34c0,-0.73 1.17,-1.25 2.48,-1.25l3.98,0l0,10.84l-3.98,0c-1.31,0 -2.48,-0.59 -2.48,-1.25zm6.46,-20.5l0,7.81l-7.83,0c-2.68,0 -4.77,1.06 -4.77,2.41l0,12.23c0,1.35 2.09,2.4 4.77,2.4l13.98,0l0,-25.61l-6.15,0.76z" class="st0"/>
   <path id="svg_47" clip-rule="evenodd" fill-rule="evenodd" d="m194.74,136.54l0,1.32c0,0.71 -1.1,1.29 -2.47,1.29l-3.99,0l0,-2.61c0,-0.71 1.1,-1.28 2.48,-1.28l1.51,0c1.37,0 2.47,0.57 2.47,1.28zm6.15,3.3l0,-5.31c0,-1.31 -2.16,-2.37 -4.78,-2.37l-9.2,0c-2.62,0 -4.77,1.06 -4.77,2.37l0,12.27c0,1.31 2.15,2.4 4.77,2.4l11.17,0l1.43,-3.1l-8.75,0c-1.38,0 -2.48,-0.56 -2.48,-1.27l0,-2.59l7.83,0c2.62,0 4.78,-1.09 4.78,-2.4z" class="st0"/>
   <path id="svg_48" clip-rule="evenodd" fill-rule="evenodd" d="m229.83,135.26l3.99,0l0,10.84l-3.99,0c-1.31,0 -2.47,-0.59 -2.47,-1.25l0,-8.31c0,-0.76 1.16,-1.28 2.47,-1.28zm10.13,21.75l0,-24.85l-13.98,0c-2.68,0 -4.77,1.06 -4.77,2.41l0,12.23c0,1.35 2.09,2.4 4.77,2.4l7.84,0l0,8.57l6.14,-0.76z" class="st0"/>
   <path id="svg_49" clip-rule="evenodd" fill-rule="evenodd" d="m259.03,132.19l0,13.91l-3.99,0c-1.31,0 -2.47,-0.58 -2.47,-1.23l0,-12.68l-6.15,0l0,14.61c0,1.35 2.09,2.4 4.77,2.4l13.98,0l0,-17.01l-6.14,0z" class="st0"/>
   <path id="svg_50" clip-rule="evenodd" fill-rule="evenodd" d="m284.23,136.54l0,1.32c0,0.71 -1.1,1.29 -2.47,1.29l-3.99,0l0,-2.61c0,-0.71 1.1,-1.28 2.48,-1.28l1.51,0c1.37,0 2.47,0.57 2.47,1.28zm6.15,3.3l0,-5.31c0,-1.31 -2.16,-2.37 -4.77,-2.37l-9.21,0c-2.61,0 -4.77,1.06 -4.77,2.37l0,12.27c0,1.31 2.16,2.4 4.77,2.4l11.17,0l1.44,-3.1l-8.76,0c-1.38,0 -2.48,-0.56 -2.48,-1.27l0,-2.59l7.84,0c2.61,0 4.77,-1.09 4.77,-2.4z" class="st0"/>
   <path id="svg_51" clip-rule="evenodd" fill-rule="evenodd" d="m51.05,177.77l0,8.35c0,0.73 -1.17,1.25 -2.48,1.25l-3.98,0l0,-10.85l3.98,0c1.31,0 2.48,0.59 2.48,1.25zm-6.46,21.26l0,-8.57l7.9,0c2.48,0 4.7,-1.05 4.7,-2.4l0,-12.23c0,-1.35 -2.22,-2.41 -4.7,-2.41l-14.05,0l0,24.89l6.15,0.72z" class="st0"/>
   <path id="svg_52" clip-rule="evenodd" fill-rule="evenodd" d="m72.27,187.37c-1.37,0 -2.47,-0.57 -2.47,-1.28l0,-1.31c0,-0.71 1.1,-1.28 2.47,-1.28l3.99,0l0,3.87l-3.99,0zm5.36,-13.95l-9.79,0l-1.38,3.1l7.26,0c1.44,0 2.54,0.57 2.54,1.28l0,1.32c0,0.72 -1.1,1.29 -2.54,1.29l-5.29,0c-2.62,0 -4.78,1.08 -4.78,2.4l0,5.25c0,1.35 2.16,2.4 4.78,2.4l7.83,0l6.14,0l0,-14.63c0,-1.32 -2.15,-2.41 -4.77,-2.41z" class="st0"/>
   <path id="svg_53" clip-rule="evenodd" fill-rule="evenodd" d="m107.61,176.52l0,-3.1l-13.98,0c-2.61,0 -4.77,1.09 -4.77,2.41l0,5.27c0,1.35 2.16,2.4 4.77,2.4l5.29,0c1.45,0 2.55,0.57 2.55,1.28l0,1.31c0,0.71 -1.1,1.28 -2.55,1.28l-10.06,0l0,3.09l13.98,0c2.62,0 4.77,-1.05 4.77,-2.4l0,-5.25c0,-1.32 -2.15,-2.4 -4.77,-2.4l-5.36,0c-1.37,0 -2.47,-0.57 -2.47,-1.29l0,-1.32c0,-0.71 1.1,-1.28 2.47,-1.28l10.13,0z" class="st0"/>
   <path id="svg_54" clip-rule="evenodd" fill-rule="evenodd" d="m125.42,177.8l0,1.32c0,0.72 -1.1,1.29 -2.48,1.29l-3.98,0l0,-2.61c0,-0.71 1.1,-1.28 2.47,-1.28l1.51,0c1.38,0 2.48,0.57 2.48,1.28zm6.14,3.3l0,-5.3c0,-1.32 -2.16,-2.38 -4.77,-2.38l-9.21,0c-2.61,0 -4.77,1.06 -4.77,2.38l0,12.26c0,1.31 2.16,2.4 4.77,2.4l11.17,0l1.44,-3.09l-8.76,0c-1.37,0 -2.47,-0.57 -2.47,-1.28l0,-2.59l7.83,0c2.61,0 4.77,-1.08 4.77,-2.4z" class="st0"/>
   <path id="svg_55" clip-rule="evenodd" fill-rule="evenodd" d="m142.9,190.44l0,-13.92l3.99,0c1.31,0 2.47,0.51 2.47,1.23l0,12.69l6.15,0l0,-14.64c0,-1.32 -2.22,-2.38 -4.77,-2.38l-13.98,0l0,17.02l6.14,0z" class="st0"/>
   <polygon id="svg_56" clip-rule="evenodd" fill-rule="evenodd" points="175.83001708984375,190.3599853515625 175.83001708984375,165.760009765625 181.97998046875,165.04998779296875 181.97998046875,190.3599853515625 " class="st0"/>
   <path id="svg_57" clip-rule="evenodd" fill-rule="evenodd" d="m201.04,186.12c0,0.69 -1.16,1.25 -2.54,1.25l-1.44,0c-1.38,0 -2.48,-0.56 -2.48,-1.25l0,-8.35c0,-0.69 1.1,-1.25 2.48,-1.25l1.44,0c1.38,0 2.54,0.56 2.54,1.25l0,8.35zm1.39,-12.7l-9.22,0c-2.68,0 -4.77,1.09 -4.77,2.41l0,12.23c0,1.31 2.09,2.4 4.77,2.4l9.22,0c2.64,0 4.76,-1.09 4.76,-2.4l0,-12.23c0,-1.32 -2.12,-2.41 -4.76,-2.41z" class="st0"/>
   <path id="svg_58" clip-rule="evenodd" fill-rule="evenodd" d="m229.88,176.52l0,-3.1l-13.98,0c-2.62,0 -4.77,1.09 -4.77,2.41l0,5.27c0,1.35 2.15,2.4 4.77,2.4l5.29,0c1.44,0 2.54,0.57 2.54,1.28l0,1.31c0,0.71 -1.1,1.28 -2.54,1.28l-10.06,0l0,3.09l13.97,0c2.62,0 4.78,-1.05 4.78,-2.4l0,-5.25c0,-1.32 -2.16,-2.4 -4.78,-2.4l-5.35,0c-1.38,0 -2.48,-0.57 -2.48,-1.29l0,-1.32c0,-0.71 1.1,-1.28 2.48,-1.28l10.13,0z" class="st0"/>
   <path id="svg_59" clip-rule="evenodd" fill-rule="evenodd" d="m276.51,168.8c0,-1.29 -2.13,-2.36 -4.74,-2.36l-15.55,0c-2.64,0 -4.76,1.07 -4.76,2.36l0,4.79l6.15,0.78l0,-3.53c0,-0.71 0.96,-1.27 2.26,-1.34l0,0.04l8.03,0c1.3,0 2.47,0.59 2.47,1.3l0,3.79c0,0.74 -1.17,1.33 -2.47,1.33l-4.87,0l-1.44,3.1l6.31,0c1.3,0 2.47,0.54 2.47,1.21l0,5.91c0,0.67 -1.17,1.2 -2.47,1.2l-7.82,0c-1.38,0 -2.47,-0.53 -2.47,-1.2l0,-1.75l-6.15,-0.74l0,4.39c0,1.33 2.12,2.4 4.76,2.4l15.55,0c2.61,0 4.74,-1.07 4.74,-2.4l0,-9.72l0,-1.7l0,-7.86z" class="st0"/>
   <path id="svg_60" clip-rule="evenodd" fill-rule="evenodd" d="m75.47,217.78l0,-3.09l-13.98,0c-2.61,0 -4.77,1.08 -4.77,2.4l0,5.27c0,1.35 2.16,2.4 4.77,2.4l5.29,0c1.45,0 2.55,0.57 2.55,1.28l0,1.31c0,0.71 -1.1,1.28 -2.55,1.28l-10.06,0l0,3.09l13.98,0c2.61,0 4.77,-1.05 4.77,-2.4l0,-5.25c0,-1.31 -2.16,-2.4 -4.77,-2.4l-5.36,0c-1.37,0 -2.47,-0.57 -2.47,-1.28l0,-1.32c0,-0.72 1.1,-1.29 2.47,-1.29l10.13,0z" class="st0"/>
   <path id="svg_61" clip-rule="evenodd" fill-rule="evenodd" d="m93.27,219.07l0,1.32c0,0.71 -1.1,1.28 -2.47,1.28l-3.99,0l0,-2.6c0,-0.72 1.1,-1.29 2.48,-1.29l1.51,0c1.37,0 2.47,0.57 2.47,1.29zm6.15,3.29l0,-5.3c0,-1.32 -2.16,-2.37 -4.77,-2.37l-9.21,0c-2.61,0 -4.77,1.05 -4.77,2.37l0,12.26c0,1.32 2.16,2.4 4.77,2.4l11.17,0l1.44,-3.09l-8.76,0c-1.38,0 -2.48,-0.57 -2.48,-1.28l0,-2.59l7.84,0c2.61,0 4.77,-1.08 4.77,-2.4z" class="st0"/>
   <path id="svg_62" clip-rule="evenodd" fill-rule="evenodd" d="m118.48,227.39c0,0.66 -1.15,1.26 -2.44,1.26l-1.57,0c-1.29,0 -2.45,-0.6 -2.45,-1.26l0,-8.36c0,-0.69 1.16,-1.25 2.45,-1.25l4.01,0l0,9.61zm1.39,-12.7l-9.23,0c-2.65,0 -4.76,1.07 -4.76,2.41l0,12.24c0,1.34 2.11,2.4 4.76,2.4l7.84,0l0,3.97c0,0.7 -1.15,1.2 -2.44,1.2l-1.57,0c-1.29,0 -2.45,-0.5 -2.45,-1.2l-6.14,0l0,1.94c0,1.28 2.11,2.35 4.76,2.35l9.23,0c2.64,0 4.76,-1.07 4.76,-2.35l0,-22.96l-4.76,0z" class="st0"/>
   <path id="svg_63" clip-rule="evenodd" fill-rule="evenodd" d="m142.43,214.71l0,13.92l-3.98,0c-1.31,0 -2.48,-0.58 -2.48,-1.24l0,-12.68l-6.14,0l0,14.61c0,1.35 2.09,2.4 4.77,2.4l13.98,0l0,-17.01l-6.15,0z" class="st0"/>
   <path id="svg_64" clip-rule="evenodd" fill-rule="evenodd" d="m162.44,231.7l0,-13.92l3.99,0c1.3,0 2.47,0.52 2.47,1.24l0,12.68l6.15,0l0,-14.64c0,-1.32 -2.23,-2.37 -4.78,-2.37l-13.97,0l0,17.01l6.14,0z" class="st0"/>
   <path id="svg_65" clip-rule="evenodd" fill-rule="evenodd" d="m186.39,227.38l0,-8.35c0,-0.73 1.17,-1.25 2.47,-1.25l3.99,0l0,10.85l-3.99,0c-1.3,0 -2.47,-0.59 -2.47,-1.25zm6.46,-20.51l0,7.82l-7.83,0c-2.68,0 -4.77,1.05 -4.77,2.4l0,12.23c0,1.35 2.09,2.4 4.77,2.4l13.98,0l0,-25.6l-6.15,0.75z" class="st0"/>
   <path id="svg_66" clip-rule="evenodd" fill-rule="evenodd" d="m219.32,227.38c0,0.69 -1.17,1.25 -2.54,1.25l-1.45,0c-1.37,0 -2.47,-0.56 -2.47,-1.25l0,-8.35c0,-0.69 1.1,-1.25 2.47,-1.25l1.45,0c1.37,0 2.54,0.56 2.54,1.25l0,8.35zm1.39,-12.69l-9.22,0c-2.68,0 -4.77,1.08 -4.77,2.4l0,12.23c0,1.32 2.09,2.4 4.77,2.4l9.22,0c2.64,0 4.76,-1.08 4.76,-2.4l0,-12.23c0,-1.32 -2.12,-2.4 -4.76,-2.4z" class="st0"/>
   <path id="svg_67" clip-rule="evenodd" fill-rule="evenodd" d="m248.15,217.78l0,-3.09l-13.97,0c-2.62,0 -4.78,1.08 -4.78,2.4l0,5.27c0,1.35 2.16,2.4 4.78,2.4l5.29,0c1.44,0 2.54,0.57 2.54,1.28l0,1.31c0,0.71 -1.1,1.28 -2.54,1.28l-10.07,0l0,3.09l13.98,0c2.62,0 4.77,-1.05 4.77,-2.4l0,-5.25c0,-1.31 -2.15,-2.4 -4.77,-2.4l-5.36,0c-1.37,0 -2.47,-0.57 -2.47,-1.28l0,-1.32c0,-0.72 1.1,-1.29 2.47,-1.29l10.13,0z" class="st0"/>
   <rect id="svg_68" clip-rule="evenodd" fill-rule="evenodd" height="3.09" width="6.15" class="st0" y="228.63" x="254.61"/>
  </g>
 </g>
</svg>