<svg width="54" height="125" xmlns="http://www.w3.org/2000/svg" fill="none">

 <g>
  <title>Layer 1</title>
  <g id="svg_10">
   <path id="svg_1" fill="#FFCAB9" d="m42.6709,130.74812l0,-47.14174c5.3227,-2.15363 9.1084,-7.64917 9.1084,-14.09221l0,-25.62725l-49.24353,0l0,25.62725c0,6.44304 3.78569,11.93858 9.10843,14.09221l0,47.14174l31.0267,0z"/>
   <path id="svg_2" fill="#FABBA7" d="m30.979,46.77058c-2.8697,0.56555 -5.6252,-1.46208 -6.1547,-4.52891l-5.7259,-33.17975c-0.5291,-3.06684 1.3681,-6.01162 4.2378,-6.57746c2.8698,-0.56549 5.6253,1.4621 6.1547,4.52893l5.7259,33.17982c0.5295,3.06715 -1.3681,6.01193 -4.2378,6.57738z"/>
   <path id="svg_3" fill="#FABBA7" d="m37.1086,46.28892c-2.8075,-0.85143 -4.4372,-3.97393 -3.6407,-6.97397l8.6189,-32.45757c0.7967,-3.00002 3.7185,-4.74197 6.5257,-3.89086c2.8072,0.85148 4.4371,3.97392 3.6407,6.97396l-8.6189,32.45755c-0.7964,3.00046 -3.7181,4.74232 -6.5257,3.8909z"/>
   <path id="svg_4" fill="#FABBA7" d="m7.8197,49.78087c-2.91836,0 -5.28393,-2.52799 -5.28393,-5.64686l0,-5.38471c0,-3.11887 2.36557,-5.64697 5.28393,-5.64697c2.9184,0 5.2839,2.5281 5.2839,5.64697l0,5.38471c0,3.11887 -2.3655,5.64686 -5.2839,5.64686z"/>
   <path id="svg_5" fill="#FABBA7" d="m18.3876,49.78087c-2.9184,0 -5.284,-2.52799 -5.284,-5.64686l0,-11.5235c0,-3.11877 2.3656,-5.64686 5.284,-5.64686c2.9183,0 5.2839,2.5281 5.2839,5.64686l0,11.5235c0,3.11887 -2.3656,5.64686 -5.2839,5.64686z"/>
   <path id="svg_6" fill="#FFCAB9" d="m51.7798,69.51428l0,-25.38027c0,-3.11887 -2.3655,-5.64697 -5.2839,-5.64697l-17.5406,0c-2.9183,0 -5.2839,2.5281 -5.2839,5.64697c0,3.11877 2.3656,5.64686 5.2839,5.64686l12.2567,0l0,8.45261c-4.8951,0.96888 -9.738,5.90399 -9.738,12.83468"/>
   <path id="svg_7" fill="black" d="m42.6709,90.82343c-1.3999,0 -2.5342,2.13284 -2.5342,4.76178l0,33.12389c0.1163,6.30645 4.9535,6.30081 5.0684,0l0,-33.12389c0,-2.62894 -1.1343,-4.76178 -2.5342,-4.76178z"/>
   <path id="svg_8" fill="black" d="m49.3043,0.36146c-4.0759,-1.2364 -8.5114,1.44692 -9.6552,5.75664l-4.6885,17.65667l-2.9771,-17.25224c-0.7819,-4.53071 -4.8693,-7.53795 -9.1065,-6.70128c-4.2395,0.83558 -7.052,5.20127 -6.2705,9.73198l2.544,14.74295c-3.8709,-0.40258 -7.6782,2.6075 -8.4324,6.69621c-4.96122,-2.24137 -10.83034,1.96768 -10.71647,7.75753l0,30.76456c0,6.70124 3.5958,12.85039 9.10846,15.85117l0,45.38246c0,1.49617 1.13431,2.70914 2.53421,2.70914c1.3998,0 2.5341,-1.21297 2.5341,-2.70914l0,-47.14174c0,-1.12597 -0.6518,-2.13407 -1.637,-2.5328c-4.46896,-1.80801 -7.47144,-6.45351 -7.47144,-11.55951l0,-17.55979c2.65716,1.13773 6.03334,0.39061 8.03364,-1.66866c2.8528,2.91625 7.7154,2.9155 10.5675,0c1.3924,1.36707 3.2484,2.20375 5.2839,2.20375l9.7224,0l0,3.69116c-5.0302,1.96404 -9.738,7.3697 -9.738,14.88774c0,1.49564 1.1343,2.70828 2.5342,2.70828c1.3999,0 2.5342,-1.21265 2.5342,-2.70828c0,-5.62122 3.9492,-9.43623 7.6656,-10.17182c1.2012,-0.23757 2.0726,-1.35735 2.0726,-2.66307l0,-8.45261c0,-1.49564 -1.1342,-2.70828 -2.5341,-2.70828l-12.2566,0c-3.6374,-0.14438 -3.6465,-5.72883 0,-5.87717c5.8468,0 11.6937,0.00064 17.5405,0c1.5161,0 2.7497,1.31791 2.7497,2.93858l0,25.38017c0,5.106 -3.0028,9.75118 -7.4714,11.55951c-0.9853,0.39873 -1.637,1.40683 -1.637,2.5328l0,14.34175c0,1.49564 1.1343,2.70828 2.5341,2.70828c1.3999,0 2.5342,-1.21265 2.5342,-2.70828l0,-12.58289c5.5126,-3.00067 9.1085,-9.14983 9.1085,-15.85117l0,-25.38017c0,-4.06274 -2.7278,-7.45531 -6.3284,-8.20093l6.7058,-25.2531c1.1765,-4.43249 -1.2397,-9.06142 -5.387,-10.31841zm-41.4846,46.71102c-1.51611,0 -2.74974,-1.31802 -2.74974,-2.93858l0,-0.24697l0,-5.13774c0.13854,-3.8941 5.36224,-3.8909 5.49944,0l0,5.38471c0.0004,1.62057 -1.23359,2.93858 -2.7497,2.93858zm13.3175,-2.93858c-0.1368,3.89015 -5.3606,3.89485 -5.4991,0l0,-5.38471l0,-6.13868c0.1365,-3.88972 5.3606,-3.89485 5.4991,0l0,11.52339zm5.0684,-7.81994l0,-3.70313c0,-1.66278 -0.4589,-3.21228 -1.2455,-4.51555l-3.3691,-19.52423c-0.275,-1.59353 0.714,-3.12892 2.2051,-3.42285c1.4911,-0.29358 2.9278,0.76336 3.2028,2.35688l4.8791,28.2741l-2.9227,0c-0.9674,-0.00043 -1.8939,0.18959 -2.7497,0.53477zm23.6099,-27.11278l-7.0574,26.57758l-5.7171,0l7.4839,-28.18231c0.6089,-1.6773 1.7408,-2.3522 3.3961,-2.02432c1.4583,0.44198 2.3085,2.07018 1.8945,3.62904z"/>
  </g>
 </g>
</svg>