<svg width="54" height="125" xmlns="http://www.w3.org/2000/svg" fill="none">

 <g>
  <title>Layer 1</title>
  <g id="svg_8">
   <path id="svg_1" fill="#FFCAB9" d="m41.67048,127.6415l0,-69.42688c5.3228,-2.10492 9.1085,-7.47616 9.1085,-13.77357l0,-25.0475l-49.24322,0l0,25.0475c0,6.29741 3.78571,11.66865 9.10842,13.77357l0,69.42688l31.0263,0z"/>
   <path id="svg_2" fill="#FABBA7" d="m7.81933,25.15418c-2.91836,0 -5.28394,-2.47092 -5.28394,-5.51925l0,-5.26292c0,-3.04822 2.36558,-5.51914 5.28394,-5.51914c2.91835,0 5.28395,2.47092 5.28395,5.51914l0,5.26292c0,3.04833 -2.3656,5.51925 -5.28395,5.51925z"/>
   <path id="svg_3" fill="#FABBA7" d="m18.38718,25.15418c-2.9183,0 -5.2839,-2.47081 -5.2839,-5.51914l0,-11.2628c0,-3.04829 2.3656,-5.51917 5.2839,-5.51917c2.9184,0 5.284,2.47089 5.284,5.51917l0,11.2628c0,3.04833 -2.3656,5.51914 -5.284,5.51914z"/>
   <path id="svg_4" fill="#FABBA7" d="m28.95498,25.15418c-2.9184,0 -5.284,-2.47081 -5.284,-5.51914l0,-11.2628c0,-3.04829 2.3656,-5.51917 5.284,-5.51917c2.9183,0 5.2839,2.47089 5.2839,5.51917l0,11.2628c0,3.04833 -2.3659,5.51914 -5.2839,5.51914z"/>
   <path id="svg_5" fill="#FABBA7" d="m39.52278,25.15418c-2.9183,0 -5.2839,-2.47081 -5.2839,-5.51914l0,-11.2628c0,-3.04829 2.3656,-5.51917 5.2839,-5.51917c2.9184,0 5.284,2.47089 5.284,5.51917l0,11.2628c0,3.04833 -2.3659,5.51914 -5.284,5.51914z"/>
   <path id="svg_6" fill="#FFCAB9" d="m51.77948,44.44126l0,-24.80632c0,-3.04833 -2.3656,-5.51914 -5.284,-5.51914l-17.5405,0c-2.9184,0 -5.284,2.47081 -5.284,5.51914c0,3.04833 2.3656,5.51914 5.284,5.51914l12.2566,0l0,8.26153c-4.895,0.94686 -9.738,5.77045 -9.738,12.54427"/>
   <path id="svg_7" fill="black" d="m47.34048,11.51713l0,-3.14502c0.0223,-7.08157 -8.1951,-10.79123 -13.1016,-6.01219c-2.8531,-2.85028 -7.7154,-2.84957 -10.5675,0c-4.4283,-4.32094 -11.8284,-1.74771 -12.9536,4.43036c-4.96123,-2.19064 -10.83002,1.92346 -10.71615,7.58205l0,30.06872c0,6.54967 3.59581,12.55973 9.10845,15.49264l0.8971,66.62778c0,1.46233 1.1343,2.64682 2.5342,2.64682c1.3998,0 2.5341,-1.18449 2.5341,-2.64682l-0.8971,-68.34695c0,-1.1004 -0.6517,-2.0858 -1.637,-2.47541c-4.46894,-1.76712 -7.47142,-6.30765 -7.47142,-11.29806l0,-17.16273c2.65715,1.11168 6.03302,0.38219 8.03332,-1.63091c2.8531,2.85029 7.7157,2.84997 10.5678,0c1.3924,1.33626 3.2481,2.15391 5.2839,2.15391l9.7221,0l0,3.60767c-5.0299,1.91962 -9.7377,7.20301 -9.7377,14.55101c0,1.46191 1.1343,2.64702 2.5342,2.64702c1.3999,0 2.5342,-1.18511 2.5342,-2.64702c0,-5.49407 3.9492,-9.2228 7.6653,-9.94164c1.2012,-0.23261 2.0726,-1.32675 2.0726,-2.60295l0,-8.26143c0,-1.46181 -1.1343,-2.64692 -2.5341,-2.64692l-12.2566,0c-1.5161,0 -2.7498,-1.28863 -2.7498,-2.87222c0,-1.5836 1.2333,-2.87212 2.7498,-2.87212l17.5405,0c1.5161,0 2.7497,1.28821 2.7497,2.87212l0,24.80622c0,4.99041 -3.0028,9.53052 -7.4714,11.29806c-0.9853,0.38961 -1.6371,1.37501 -1.6371,2.47541l0.8971,68.34695c0,1.46233 1.1343,2.64682 2.5342,2.64682c1.3999,0 2.5342,-1.18449 2.5342,-2.64682l-0.8971,-66.62778c5.5126,-2.93291 9.1084,-8.94298 9.1084,-15.49264l0,-24.80622c0,-4.2044 -3.0582,-7.67587 -6.973,-8.1177zm-7.818,-6.01717c1.5161,0 2.7497,1.2882 2.7497,2.87215l0,3.09666l-5.4991,0l0,-3.09666c0,-1.5836 1.2332,-2.87215 2.7494,-2.87215zm-31.70313,17.00709c-1.5161,0 -2.74973,-1.28821 -2.74973,-2.87222l0,-0.24139l0,-5.02153c0.13853,-3.80602 5.36196,-3.80279 5.49916,0l0,5.26292c0.0003,1.58402 -1.233,2.87222 -2.74943,2.87222zm10.56813,0c-1.5161,0 -2.7501,-1.28821 -2.7501,-2.87222l0,-5.26292l0,-5.9998c0.1386,-3.80566 5.3623,-3.80318 5.4995,0l0,11.26272c0,1.58402 -1.2333,2.87222 -2.7494,2.87222zm7.8177,-10.51529l0,-3.61931c0.1386,-3.80601 5.362,-3.80284 5.4992,0l0,3.09663l-2.7498,0c-0.967,-0.00031 -1.8935,0.1853 -2.7494,0.52268z"/>
  </g>
 </g>
</svg>