<svg width="997" height="453" xmlns="http://www.w3.org/2000/svg" xml:space="preserve" version="1.1">

 <g>
  <title>Layer 1</title>
  <g id="Ticket">
   <g id="svg_1">
    <path id="svg_2" fill="#FDAA04" d="m997,70.06l0,10.78c-5.97,0.48 -10.67,5.4 -10.67,11.48c0,0.73 0.06,1.43 0.22,2.13c-1.87,-2.02 -3.02,-4.73 -3.02,-7.73c0,-6.07 4.7,-11 10.67,-11.48l0,-5.26c0.92,0.06 1.85,0.08 2.8,0.08z" class="st0"/>
    <path id="svg_3" fill="#FDAA04" d="m997,103.8l0,11.53c-5.97,0.47 -10.67,5.4 -10.67,11.48c0,0.72 0.06,1.42 0.22,2.12c-1.87,-2.01 -3.02,-4.73 -3.02,-7.72c0,-6.08 4.7,-11 10.67,-11.48l0,-6.52c0.9,0.31 1.82,0.5 2.8,0.59z" class="st0"/>
    <path id="svg_4" fill="#FDAA04" d="m997,138.28l0,11.56c-5.97,0.48 -10.67,5.41 -10.67,11.48c0,0.73 0.06,1.43 0.22,2.13c-1.87,-2.02 -3.02,-4.76 -3.02,-7.73c0,-6.07 4.7,-11 10.67,-11.48l0,-6.55c0.9,0.31 1.82,0.51 2.8,0.59z" class="st0"/>
    <path id="svg_5" fill="#FDAA04" d="m997,172.8l0,11.56c-5.97,0.47 -10.67,5.4 -10.67,11.47c0,0.73 0.06,1.43 0.22,2.13c-1.87,-2.01 -3.02,-4.73 -3.02,-7.72c0,-6.08 4.7,-11.01 10.67,-11.48l0,-6.52c0.9,0.28 1.82,0.47 2.8,0.56z" class="st0"/>
    <path id="svg_6" fill="#FDAA04" d="m997,207.31l0,11.53c-5.97,0.48 -10.67,5.41 -10.67,11.48c0,0.73 0.06,1.43 0.22,2.13c-1.87,-2.02 -3.02,-4.73 -3.02,-7.73c0,-6.07 4.7,-11 10.67,-11.47l0,-6.53c0.9,0.31 1.82,0.51 2.8,0.59z" class="st0"/>
    <path id="svg_7" fill="#FDAA04" d="m997,276.31l0,11.56c-5.97,0.48 -10.67,5.41 -10.67,11.48c0,0.73 0.06,1.43 0.22,2.13c-1.87,-2.02 -3.02,-4.73 -3.02,-7.73c0,-6.07 4.7,-11 10.67,-11.48l0,-6.52c0.9,0.28 1.82,0.48 2.8,0.56z" class="st0"/>
    <path id="svg_8" fill="#FDAA04" d="m997,310.83l0,11.53c-5.97,0.48 -10.67,5.4 -10.67,11.48c0,0.72 0.06,1.42 0.22,2.12c-1.87,-2.01 -3.02,-4.73 -3.02,-7.72c0,-6.08 4.7,-11 10.67,-11.48l0,-6.52c0.9,0.31 1.82,0.5 2.8,0.59z" class="st0"/>
    <path id="svg_9" fill="#FDAA04" d="m997,345.31l0,11.56c-5.97,0.48 -10.67,5.41 -10.67,11.48c0,0.73 0.06,1.43 0.22,2.13c-1.87,-2.02 -3.02,-4.76 -3.02,-7.73c0,-6.07 4.7,-11 10.67,-11.47l0,-6.55c0.9,0.3 1.82,0.5 2.8,0.58z" class="st0"/>
    <path id="svg_10" fill="#FDAA04" d="m997,379.83l0,10.47c-34.64,0 -62.73,28.07 -62.73,62.7l-870.73,0c0,-1.88 -0.08,-3.75 -0.28,-5.6l868.21,0c0,-34.63 28.09,-62.7 62.73,-62.7l0,-5.43c0.9,0.28 1.82,0.47 2.8,0.56z" class="st0"/>
    <path id="svg_11" fill="#FDAA04" d="m997,241.8l0,11.56c-5.97,0.47 -10.67,5.4 -10.67,11.48c0,0.72 0.06,1.42 0.22,2.12c-1.87,-2.01 -3.02,-4.76 -3.02,-7.72c0,-6.08 4.7,-11 10.67,-11.48l0,-6.55c0.9,0.31 1.82,0.5 2.8,0.59z" class="st0"/>
   </g>
   <g id="svg_12">
    <path id="svg_13" fill="#FDD700" d="m0,382.94l0,-10.78c5.97,-0.48 10.67,-5.4 10.67,-11.48c0,-0.73 -0.06,-1.43 -0.22,-2.13c1.87,2.02 3.02,4.73 3.02,7.73c0,6.07 -4.7,11 -10.67,11.48l0,5.26c-0.92,-0.06 -1.85,-0.08 -2.8,-0.08z" class="st1"/>
    <path id="svg_14" fill="#FDD700" d="m0,349.2l0,-11.53c5.97,-0.47 10.67,-5.4 10.67,-11.48c0,-0.72 -0.06,-1.42 -0.22,-2.12c1.87,2.01 3.02,4.73 3.02,7.72c0,6.08 -4.7,11 -10.67,11.48l0,6.52c-0.9,-0.31 -1.82,-0.5 -2.8,-0.59z" class="st1"/>
    <path id="svg_15" fill="#FDD700" d="m0,314.72l0,-11.56c5.97,-0.48 10.67,-5.41 10.67,-11.48c0,-0.73 -0.06,-1.43 -0.22,-2.13c1.87,2.02 3.02,4.76 3.02,7.73c0,6.07 -4.7,11 -10.67,11.48l0,6.55c-0.9,-0.31 -1.82,-0.51 -2.8,-0.59z" class="st1"/>
    <path id="svg_16" fill="#FDD700" d="m0,280.2l0,-11.56c5.97,-0.47 10.67,-5.4 10.67,-11.47c0,-0.73 -0.06,-1.43 -0.22,-2.13c1.87,2.01 3.02,4.73 3.02,7.72c0,6.08 -4.7,11 -10.67,11.48l0,6.52c-0.9,-0.28 -1.82,-0.47 -2.8,-0.56z" class="st1"/>
    <path id="svg_17" fill="#FDD700" d="m0,245.69l0,-11.53c5.97,-0.48 10.67,-5.41 10.67,-11.48c0,-0.73 -0.06,-1.43 -0.22,-2.13c1.87,2.02 3.02,4.73 3.02,7.73c0,6.07 -4.7,11 -10.67,11.47l0,6.53c-0.9,-0.31 -1.82,-0.51 -2.8,-0.59z" class="st1"/>
    <path id="svg_18" fill="#FDD700" d="m0,176.69l0,-11.56c5.97,-0.48 10.67,-5.41 10.67,-11.48c0,-0.73 -0.06,-1.43 -0.22,-2.13c1.87,2.02 3.02,4.73 3.02,7.73c0,6.07 -4.7,11 -10.67,11.48l0,6.52c-0.9,-0.28 -1.82,-0.48 -2.8,-0.56z" class="st1"/>
    <path id="svg_19" fill="#FDD700" d="m0,142.17l0,-11.53c5.97,-0.48 10.67,-5.4 10.67,-11.48c0,-0.72 -0.06,-1.42 -0.22,-2.12c1.87,2.01 3.02,4.73 3.02,7.72c0,6.08 -4.7,11 -10.67,11.48l0,6.52c-0.9,-0.31 -1.82,-0.5 -2.8,-0.59z" class="st1"/>
    <path id="svg_20" fill="#FDD700" d="m0,107.69l0,-11.56c5.97,-0.48 10.67,-5.41 10.67,-11.48c0,-0.73 -0.06,-1.43 -0.22,-2.13c1.87,2.02 3.02,4.76 3.02,7.73c0,6.07 -4.7,11 -10.67,11.47l0,6.55c-0.9,-0.3 -1.82,-0.5 -2.8,-0.58z" class="st1"/>
    <path id="svg_21" fill="#FDD700" d="m0,73.17l0,-10.47c34.64,0 62.73,-28.07 62.73,-62.7l870.73,0c0,1.88 0.08,3.75 0.28,5.6l-868.21,0c0,34.62 -28.09,62.7 -62.73,62.7l0,5.43c-0.9,-0.28 -1.82,-0.47 -2.8,-0.56z" class="st1"/>
    <path id="svg_22" fill="#FDD700" d="m0,211.2l0,-11.56c5.97,-0.47 10.67,-5.4 10.67,-11.48c0,-0.72 -0.06,-1.42 -0.22,-2.12c1.87,2.01 3.02,4.76 3.02,7.72c0,6.08 -4.7,11 -10.67,11.48l0,6.55c-0.9,-0.31 -1.82,-0.5 -2.8,-0.59z" class="st1"/>
   </g>
   <path id="svg_23" fill="#FFCC00" d="m997,67.27l0,10.77c-5.97,0.48 -10.67,5.4 -10.67,11.48c0,2.99 1.15,5.71 3.02,7.73c1.91,2.12 4.63,3.49 7.65,3.75l0,11.53c-5.97,0.48 -10.67,5.4 -10.67,11.48c0,2.99 1.15,5.71 3.02,7.72c1.91,2.13 4.63,3.5 7.65,3.75l0,11.56c-5.97,0.48 -10.67,5.41 -10.67,11.48c0,2.97 1.15,5.71 3.02,7.73c1.91,2.12 4.63,3.5 7.65,3.75l0,11.56c-5.97,0.47 -10.67,5.4 -10.67,11.48c0,2.99 1.15,5.71 3.02,7.72c1.91,2.13 4.63,3.5 7.65,3.75l0,11.53c-5.97,0.48 -10.67,5.41 -10.67,11.48c0,3 1.15,5.71 3.02,7.73c1.91,2.12 4.63,3.5 7.65,3.75l0,11.56c-5.97,0.48 -10.67,5.4 -10.67,11.48c0,2.96 1.15,5.71 3.02,7.72c1.91,2.13 4.63,3.5 7.65,3.75l0,11.56c-5.97,0.48 -10.67,5.41 -10.67,11.48c0,3 1.15,5.71 3.02,7.73c1.91,2.12 4.63,3.5 7.65,3.75l0,11.53c-5.97,0.48 -10.67,5.4 -10.67,11.48c0,2.99 1.15,5.71 3.02,7.72c1.91,2.13 4.63,3.5 7.65,3.75l0,11.56c-5.97,0.48 -10.67,5.41 -10.67,11.48c0,2.97 1.15,5.71 3.02,7.73c1.91,2.13 4.63,3.5 7.65,3.75l0,10.47c-34.64,0 -62.73,28.07 -62.73,62.7l-870.73,0c0,-8.93 -1.87,-17.44 -5.26,-25.14c-9.44,-21.55 -30.64,-36.75 -55.48,-37.51c-0.64,-0.05 -1.32,-0.05 -1.99,-0.05c-0.28,0 -0.53,0.03 -0.81,0.03l0,-10.5c0.28,0.03 0.53,0.08 0.81,0.08c6.42,0 11.6,-5.18 11.6,-11.56c0,-0.73 -0.06,-1.45 -0.2,-2.15c-0.9,-4.71 -4.65,-8.4 -9.41,-9.24c-0.64,-0.11 -1.32,-0.17 -1.99,-0.17c-0.28,0 -0.53,0.06 -0.81,0.08l0,-11.53c0.28,0.03 0.53,0.09 0.81,0.09c6.42,0 11.6,-5.18 11.6,-11.59c0,-0.73 -0.06,-1.46 -0.2,-2.16c-0.9,-4.7 -4.65,-8.4 -9.41,-9.24c-0.64,-0.11 -1.32,-0.16 -1.99,-0.16c-0.28,0 -0.53,0.05 -0.81,0.08l0,-11.53c0.28,0.03 0.53,0.08 0.81,0.08c6.42,0 11.6,-5.18 11.6,-11.56c0,-0.76 -0.06,-1.48 -0.2,-2.18c-0.9,-4.71 -4.65,-8.4 -9.41,-9.24c-0.64,-0.11 -1.32,-0.17 -1.99,-0.17c-0.28,0 -0.53,0.09 -0.81,0.09l0,-11.54c0.28,0.03 0.53,0.09 0.81,0.09c6.42,0 11.6,-5.18 11.6,-11.56c0,-0.73 -0.06,-1.46 -0.2,-2.16c-0.9,-4.7 -4.65,-8.4 -9.41,-9.24c-0.64,-0.11 -1.32,-0.16 -1.99,-0.16c-0.28,0 -0.53,0.05 -0.81,0.08l0,-11.53c0.28,0.02 0.53,0.08 0.81,0.08c6.42,0 11.6,-5.18 11.6,-11.59c0,-0.73 -0.06,-1.45 -0.2,-2.15c-0.9,-4.71 -4.65,-8.4 -9.41,-9.24c-0.64,-0.11 -1.32,-0.17 -1.99,-0.17c-0.28,0 -0.53,0.06 -0.81,0.08l0,-11.53c0.28,0.03 0.53,0.09 0.81,0.09c6.42,0 11.6,-5.18 11.6,-11.56c0,-0.76 -0.06,-1.49 -0.2,-2.19c-0.9,-4.7 -4.65,-8.4 -9.41,-9.24c-0.64,-0.11 -1.32,-0.16 -1.99,-0.16c-0.28,0 -0.53,0.05 -0.81,0.08l0,-11.53c0.28,0.03 0.53,0.08 0.81,0.08c6.42,0 11.6,-5.18 11.6,-11.56c0,-0.73 -0.06,-1.46 -0.2,-2.16c-0.9,-4.7 -4.65,-8.39 -9.41,-9.23c-0.64,-0.11 -1.32,-0.17 -1.99,-0.17c-0.28,0 -0.53,0.06 -0.81,0.08l0,-11.53c0.28,0.03 0.53,0.08 0.81,0.08c6.42,0 11.6,-5.17 11.6,-11.58c0,-0.73 -0.06,-1.46 -0.2,-2.16c-0.9,-4.7 -4.65,-8.4 -9.41,-9.24c-0.64,-0.11 -1.32,-0.16 -1.99,-0.16c-0.28,0 -0.53,0.05 -0.81,0.08l0,-11.53c0.28,0.02 0.53,0.08 0.81,0.08c6.42,0 11.6,-5.18 11.6,-11.56c0,-0.76 -0.06,-1.48 -0.2,-2.18c-0.9,-4.71 -4.65,-8.4 -9.41,-9.24c-0.64,-0.11 -1.32,-0.17 -1.99,-0.17c-0.28,0 -0.53,0.06 -0.81,0.08l0,-10.77c0.28,0 0.53,0.03 0.81,0.03c34.65,0 62.73,-28.08 62.73,-62.71l870.73,0c0,1.88 0.08,3.75 0.28,5.6c0.78,9.07 3.5,17.58 7.78,25.14c10.76,19.09 31.2,31.97 54.67,31.97z" class="st2"/>
   <path id="svg_24" fill="#FDD700" clip-rule="evenodd" fill-rule="evenodd" d="m834.88,45.8l0,0.2l-691.74,0l0,-0.2l-8.4,0l0,0.2l-1.74,0l0,0.55l-47.24,0c-8.77,19.98 -23.56,36.73 -42.36,47.94l0,21.7l0,7.83l0,69.01l0,34.5l0,34.51l0,34.5l0,34.51l0,7.93l-0.02,21.28c18.81,11.22 33.61,27.97 42.38,47.95l804.28,0c8.93,-20.35 24.07,-37.3 43.33,-48.51c0.02,-5.73 -0.01,-14.32 -0.03,-20.57l-0.02,-8.08l0,-34.51l0,-34.5l0,-34.51l0,-34.5l0,-34.51l0,-34.5l0.02,-7.95l0.01,-21.02c-19.25,-11.21 -34.38,-28.15 -43.31,-48.5l-29.04,0l0,-0.55l-17.72,0l0,-0.2l-8.4,0z" class="st3"/>
   <g id="svg_25">
    <polygon id="svg_26" fill="#333333" points="223.22999572753906,61.75 228,76.41000366210938 243.42001342773438,76.41000366210938 230.94000244140625,85.47000122070312 235.7100067138672,100.1300048828125 223.22999572753906,91.06999969482422 210.75,100.1300048828125 215.52000427246094,85.47000122070312 203.0399932861328,76.41000366210938 218.4600067138672,76.41000366210938 " class="st4"/>
    <polygon id="svg_27" fill="#333333" points="292.04998779296875,61.75 296.80999755859375,76.41000366210938 312.239990234375,76.41000366210938 299.760009765625,85.47000122070312 304.5299987792969,100.1300048828125 292.04998779296875,91.06999969482422 279.57000732421875,100.1300048828125 284.3399963378906,85.47000122070312 271.8599853515625,76.41000366210938 287.2799987792969,76.41000366210938 " class="st4"/>
    <polygon id="svg_28" fill="#333333" points="360.8599853515625,61.75 365.6300048828125,76.41000366210938 381.04998779296875,76.41000366210938 368.5799865722656,85.47000122070312 373.3399963378906,100.1300048828125 360.8599853515625,91.06999969482422 348.3900146484375,100.1300048828125 353.1499938964844,85.47000122070312 340.67999267578125,76.41000366210938 356.1000061035156,76.41000366210938 " class="st4"/>
    <polygon id="svg_29" fill="#333333" points="429.67999267578125,61.75 434.45001220703125,76.41000366210938 449.8699951171875,76.41000366210938 437.3999938964844,85.47000122070312 442.1600036621094,100.1300048828125 429.67999267578125,91.06999969482422 417.20001220703125,100.1300048828125 421.9700012207031,85.47000122070312 409.489990234375,76.41000366210938 424.9200134277344,76.41000366210938 " class="st4"/>
    <polygon id="svg_30" fill="#333333" points="498.5,61.75 503.27001953125,76.41000366210938 518.6900024414062,76.41000366210938 506.21002197265625,85.47000122070312 510.97998046875,100.1300048828125 498.5,91.06999969482422 486.0199890136719,100.1300048828125 490.7900085449219,85.47000122070312 478.30999755859375,76.41000366210938 493.7300109863281,76.41000366210938 " class="st4"/>
    <polygon id="svg_31" fill="#333333" points="567.3200073242188,61.75 572.0800170898438,76.41000366210938 587.510009765625,76.41000366210938 575.030029296875,85.47000122070312 579.7999877929688,100.1300048828125 567.3200073242188,91.06999969482422 554.8400268554688,100.1300048828125 559.6099853515625,85.47000122070312 547.1300048828125,76.41000366210938 562.5499877929688,76.41000366210938 " class="st4"/>
    <polygon id="svg_32" fill="#333333" points="636.1300048828125,61.75 640.9000244140625,76.41000366210938 656.3200073242188,76.41000366210938 643.8499755859375,85.47000122070312 648.6099853515625,100.1300048828125 636.1300048828125,91.06999969482422 623.6599731445312,100.1300048828125 628.4199829101562,85.47000122070312 615.9500122070312,76.41000366210938 631.3699951171875,76.41000366210938 " class="st4"/>
    <polygon id="svg_33" fill="#333333" points="704.9500122070312,61.75 709.719970703125,76.41000366210938 725.1400146484375,76.41000366210938 712.6699829101562,85.47000122070312 717.4299926757812,100.1300048828125 704.9500122070312,91.06999969482422 692.469970703125,100.1300048828125 697.239990234375,85.47000122070312 684.760009765625,76.41000366210938 700.1900024414062,76.41000366210938 " class="st4"/>
    <polygon id="svg_34" fill="#333333" points="773.77001953125,61.75 778.5399780273438,76.41000366210938 793.9600219726562,76.41000366210938 781.489990234375,85.47000122070312 786.25,100.1300048828125 773.77001953125,91.06999969482422 761.2899780273438,100.1300048828125 766.0599975585938,85.47000122070312 753.5800170898438,76.41000366210938 769,76.41000366210938 " class="st4"/>
   </g>
   <g id="svg_35">
    <polygon id="svg_36" fill="#333333" points="223.22999572753906,352.8699951171875 228,367.5299987792969 243.42001342773438,367.5299987792969 230.94000244140625,376.5899963378906 235.7100067138672,391.25 223.22999572753906,382.19000244140625 210.75,391.25 215.52000427246094,376.5899963378906 203.0399932861328,367.5299987792969 218.4600067138672,367.5299987792969 " class="st4"/>
    <polygon id="svg_37" fill="#333333" points="292.04998779296875,352.8699951171875 296.80999755859375,367.5299987792969 312.239990234375,367.5299987792969 299.760009765625,376.5899963378906 304.5299987792969,391.25 292.04998779296875,382.19000244140625 279.57000732421875,391.25 284.3399963378906,376.5899963378906 271.8599853515625,367.5299987792969 287.2799987792969,367.5299987792969 " class="st4"/>
    <polygon id="svg_38" fill="#333333" points="360.8599853515625,352.8699951171875 365.6300048828125,367.5299987792969 381.04998779296875,367.5299987792969 368.5799865722656,376.5899963378906 373.3399963378906,391.25 360.8599853515625,382.19000244140625 348.3900146484375,391.25 353.1499938964844,376.5899963378906 340.67999267578125,367.5299987792969 356.1000061035156,367.5299987792969 " class="st4"/>
    <polygon id="svg_39" fill="#333333" points="429.67999267578125,352.8699951171875 434.45001220703125,367.5299987792969 449.8699951171875,367.5299987792969 437.3999938964844,376.5899963378906 442.1600036621094,391.25 429.67999267578125,382.19000244140625 417.20001220703125,391.25 421.9700012207031,376.5899963378906 409.489990234375,367.5299987792969 424.9200134277344,367.5299987792969 " class="st4"/>
    <polygon id="svg_40" fill="#333333" points="498.5,352.8699951171875 503.27001953125,367.5299987792969 518.6900024414062,367.5299987792969 506.21002197265625,376.5899963378906 510.97998046875,391.25 498.5,382.19000244140625 486.0199890136719,391.25 490.7900085449219,376.5899963378906 478.30999755859375,367.5299987792969 493.7300109863281,367.5299987792969 " class="st4"/>
    <polygon id="svg_41" fill="#333333" points="567.3200073242188,352.8699951171875 572.0800170898438,367.5299987792969 587.510009765625,367.5299987792969 575.030029296875,376.5899963378906 579.7999877929688,391.25 567.3200073242188,382.19000244140625 554.8400268554688,391.25 559.6099853515625,376.5899963378906 547.1300048828125,367.5299987792969 562.5499877929688,367.5299987792969 " class="st4"/>
    <polygon id="svg_42" fill="#333333" points="636.1300048828125,352.8699951171875 640.9000244140625,367.5299987792969 656.3200073242188,367.5299987792969 643.8499755859375,376.5899963378906 648.6099853515625,391.25 636.1300048828125,382.19000244140625 623.6599731445312,391.25 628.4199829101562,376.5899963378906 615.9500122070312,367.5299987792969 631.3699951171875,367.5299987792969 " class="st4"/>
    <polygon id="svg_43" fill="#333333" points="704.9500122070312,352.8699951171875 709.719970703125,367.5299987792969 725.1400146484375,367.5299987792969 712.6699829101562,376.5899963378906 717.4299926757812,391.25 704.9500122070312,382.19000244140625 692.469970703125,391.25 697.239990234375,376.5899963378906 684.760009765625,367.5299987792969 700.1900024414062,367.5299987792969 " class="st4"/>
    <polygon id="svg_44" fill="#333333" points="773.77001953125,352.8699951171875 778.5399780273438,367.5299987792969 793.9600219726562,367.5299987792969 781.489990234375,376.5899963378906 786.25,391.25 773.77001953125,382.19000244140625 761.2899780273438,391.25 766.0599975585938,376.5899963378906 753.5800170898438,367.5299987792969 769,367.5299987792969 " class="st4"/>
   </g>
   <path id="svg_45" fill="#333333" clip-rule="evenodd" fill-rule="evenodd" d="m208,162.5l0,142.62c0,9.72 7.17,17.51 16.14,17.51l54.35,0c8.97,0 16.14,-7.79 16.14,-17.51l0,-63.24l-38.09,0l-5.1,22.62l22.34,0l0,25.9c0,5.34 -3.88,9.61 -8.74,9.61l-27.45,0c-4.85,0 -8.74,-4.27 -8.74,-9.61l0,-113.5c0,-5.13 3.89,-9.24 8.74,-9.24l27.45,0c4.86,0 8.74,4.11 8.74,9.24l0,20.04l20.85,5.39l0,-39.83c0,-9.59 -7.17,-17.46 -16.14,-17.46l-54.35,0c-8.97,0 -16.14,7.87 -16.14,17.46z" class="st5"/>
   <path id="svg_46" fill="#333333" clip-rule="evenodd" fill-rule="evenodd" d="m350.73,299.88c-5.06,0 -9.11,-4.44 -9.11,-10l0,-10.28c0,-5.56 4.05,-10 9.11,-10l14.68,0l0,30.28l-14.68,0zm19.34,-103.87l-35.1,0l-4.66,22.62l25.73,0c5.32,0 9.37,4.16 9.37,9.36l0,9.63c0,5.2 -4.05,9.36 -9.37,9.36l-19.08,0c-8.87,0 -16.19,7.94 -16.19,17.56l0,40.39c0,9.87 7.32,17.57 16.19,17.57l28.45,0l20.85,0l0,-108.92c0,-9.63 -7.32,-17.57 -16.19,-17.57z" class="st5"/>
   <path id="svg_47" fill="#333333" clip-rule="evenodd" fill-rule="evenodd" d="m426.2,323l0,-104.37l14.67,0c4.81,0 9.11,3.85 9.11,9.25l0,95.12l20.86,0l0,-109.67c0,-9.62 -7.55,-17.32 -16.2,-17.32l-49.29,0l0,126.99l20.85,0z" class="st5"/>
   <path id="svg_48" fill="#333333" clip-rule="evenodd" fill-rule="evenodd" d="m517.54,299.88c-5.07,0 -9.11,-4.44 -9.11,-10l0,-10.28c0,-5.56 4.04,-10 9.11,-10l14.67,0l0,30.28l-14.67,0zm19.33,-103.87l-35.1,0l-4.66,22.62l25.74,0c5.31,0 9.36,4.16 9.36,9.36l0,9.63c0,5.2 -4.05,9.36 -9.36,9.36l-19.08,0c-8.87,0 -16.2,7.94 -16.2,17.56l0,40.39c0,9.87 7.33,17.57 16.2,17.57l28.44,0l20.85,0l0,-108.92c0,-9.63 -7.32,-17.57 -16.19,-17.57z" class="st5"/>
   <path id="svg_49" fill="#333333" clip-rule="evenodd" fill-rule="evenodd" d="m639.99,218.63l0,-22.62l-49.3,0c-8.87,0 -16.19,7.94 -16.19,17.57l0,38.45c0,9.87 7.32,17.57 16.19,17.57l19.09,0c5.31,0 9.36,4.44 9.36,10l0,10.28c0,5.56 -4.05,10 -9.36,10l-35.28,0l0,22.62l49.3,0c8.87,0 16.19,-7.7 16.19,-17.57l0,-40.39c0,-9.62 -7.32,-17.56 -16.19,-17.56l-19.34,0c-5.06,0 -9.11,-4.16 -9.11,-9.36l0,-9.63c0,-5.2 4.05,-9.36 9.11,-9.36l35.53,0z" class="st5"/>
   <polygon id="svg_50" fill="#333333" clip-rule="evenodd" fill-rule="evenodd" points="682.280029296875,323 682.280029296875,218.6300048828125 705.27001953125,218.6300048828125 710.47998046875,196.00999450683594 682.280029296875,196.00999450683594 682.280029296875,132 661.4299926757812,137.39999389648438 661.4299926757812,323 " class="st5"/>
   <path id="svg_51" fill="#333333" clip-rule="evenodd" fill-rule="evenodd" d="m767.15,227.99l0,9.63c0,5.2 -4.05,9.36 -9.11,9.36l-14.68,0l0,-18.99c0,-5.2 4.05,-9.36 9.11,-9.36l5.57,0c5.06,0 9.11,4.16 9.11,9.36zm20.85,24.04l0,-38.7c0,-9.62 -7.32,-17.32 -16.19,-17.32l-33.11,0c-8.87,0 -16.19,7.7 -16.19,17.32l0,91.6c0,9.63 7.32,17.57 16.19,17.57l39.76,0l4.88,-22.62l-30.87,0c-5.06,0 -9.11,-4.44 -9.11,-10l0,-20.28l28.45,0c8.87,0 16.19,-7.94 16.19,-17.57z" class="st5"/>
  </g>
  <g id="Text"/>
 </g>
</svg>